<?xml version="1.0" encoding="UTF-8" standalone="no"?>
<svg
   xmlns:dc="http://purl.org/dc/elements/1.1/"
   xmlns:cc="http://creativecommons.org/ns#"
   xmlns:rdf="http://www.w3.org/1999/02/22-rdf-syntax-ns#"
   xmlns:svg="http://www.w3.org/2000/svg"
   xmlns="http://www.w3.org/2000/svg"
   xmlns:sodipodi="http://sodipodi.sourceforge.net/DTD/sodipodi-0.dtd"
   xmlns:inkscape="http://www.inkscape.org/namespaces/inkscape"
   width="2.08in"
   height="0.4in"
   viewBox="0 0 624 120"
   version="1.1"
   id="svg860"
   sodipodi:docname="autosutmit.svg"
   inkscape:version="0.92.5 (2060ec1f9f, 2020-04-08)"
   inkscape:export-filename="/home/mgimenez/Documents/local/icons/autosutmit.png"
   inkscape:export-xdpi="60"
   inkscape:export-ydpi="60">
  <metadata
     id="metadata866">
    <rdf:RDF>
      <cc:Work
         rdf:about="">
        <dc:format>image/svg+xml</dc:format>
        <dc:type
           rdf:resource="http://purl.org/dc/dcmitype/StillImage" />
      </cc:Work>
    </rdf:RDF>
  </metadata>
  <defs
     id="defs864" />
  <sodipodi:namedview
     pagecolor="#ffffff"
     bordercolor="#666666"
     borderopacity="1"
     objecttolerance="10"
     gridtolerance="10"
     guidetolerance="10"
     inkscape:pageopacity="0"
     inkscape:pageshadow="2"
     inkscape:window-width="1916"
     inkscape:window-height="1017"
     id="namedview862"
     showgrid="false"
     showguides="false"
     inkscape:zoom="3.1941624"
     inkscape:cx="40.666516"
     inkscape:cy="26.574039"
     inkscape:window-x="0"
     inkscape:window-y="30"
     inkscape:window-maximized="0"
     inkscape:current-layer="svg860" />
  <path
     style="fill:#4e8490;stroke:none;stroke-width:1;fill-opacity:1"
     d="m 531,21 c 2.51,0 8.36,0.43 10.31,-0.99 2.16,-1.59 2.71,-6.21 7.71,-8.14 6.23,-2.4 13.51,4.88 11.11,11.11 -2.48,6.44 -9.25,6.99 -15.13,7.02 h -36 c -3.8,0 -12.94,-0.54 -15.99,1.02 -3.48,1.79 -6.85,6.75 -9.01,9.98 h 64 C 560.92,40.98 571.2,36.47 572.47,22 573.65,8.7 563.93,-0.26 551,0.02 546.6,0.11 542.66,0.99 539.04,3.65 533.34,7.84 531.33,14.24 531,21 Z"
     id="path935" />
  <path
     style="fill:#4e8490;stroke:none;stroke-width:1;fill-opacity:1"
     d="m 583,41 c 2.56,0 8.3,0.44 10.32,-0.99 2.05,-1.46 5.33,-9.55 11.68,-8.25 7.08,1.45 10.11,9.67 4.77,15.01 C 606.23,50.32 602.6,49.99 598,50 H 480 c -8.13,0.15 -10.64,4.71 -15,11 h 138 c 11.68,-0.06 20.68,-6.71 20.99,-19 0.15,-6.43 -0.58,-10.99 -5.2,-15.9 -8.46,-8.99 -24.72,-8.07 -31.99,1.94 -2.97,4.09 -3.57,8.07 -3.8,12.96 z"
     id="path933" />
  <path
     style="fill:#4e8490;stroke:none;stroke-width:0.31999999;fill-opacity:1"
     d="M 9.2792969 22.720703 C 3.9544969 22.794303 2.8829406 27.189775 1.4941406 31.359375 C 0.93094062 33.045775 0.272 34.720469 0 36.480469 L 8.3203125 36.480469 L 9.5996094 32 L 12.800781 32 L 11.519531 36.480469 L 18.240234 36.480469 C 20.905834 36.429269 20.393731 35.692488 21.894531 31.679688 C 22.812931 29.231687 25.385594 24.067144 21.433594 22.902344 C 20.726394 22.694344 19.632859 22.720703 18.880859 22.720703 L 9.2792969 22.720703 z M 13.462891 25.808594 C 13.948853 25.83145 14.345878 26.070059 14.455078 26.380859 C 14.688678 26.819259 14.480678 27.692956 14.455078 28.160156 L 11.199219 28.160156 C 11.593219 26.332156 12.652953 25.7705 13.462891 25.808594 z "
     transform="scale(3.125)"
     id="path931" />
  <path
     style="fill:#4e8490;stroke:none;stroke-width:1;stroke-opacity:1;fill-opacity:1"
     d="m 144,71 c -8.56722,0.27091 -18.78065,0.03784 -26.54458,0.0728 -1.06783,3.16741 -7.98093,21.940616 -10.61675,29.48936 C 105.30077,104.53789 96.42,105.32 97.46,99.83 99.756054,92.37344 102.62299,80.712293 106,71 H 89 c -2.56,0.01 -5.192306,0.06237 -7.597916,0.04346 C 80.67388,72.709645 76.75,82.51 75.81,85 c -2.52,6.63 -11.23,24.51 -1.71,28.4 1.76,0.72 4.96,0.6 6.9,0.6 h 35 c 15.6,-0.1 17.72,-12.13 22.05,-24 1.76115,-5.797628 3.89231,-12.592949 5.95,-19 z"
     id="path929"
     inkscape:connector-curvature="0"
     sodipodi:nodetypes="cccccccccsccc" />
  <path
     style="fill:#4e8490;stroke:none;stroke-width:1;fill-opacity:1"
     d="m 147,71 -4,14 h 11 l -10,29 c 9.04571,0.0179 18.09107,0.006 27.13654,-0.0512 C 174.25255,104.34941 177.08749,94.662364 180,85 c 2.24,0 10.50302,5.77e-4 12.05007,-0.05115 C 192.82878,81.669357 194.83849,74.190288 196,71 Z"
     id="path927"
     inkscape:connector-curvature="0"
     sodipodi:nodetypes="ccccccccc" />
  <path
     style="fill:#ff511c;stroke:none;stroke-width:1;fill-opacity:1"
     d="m 294,97 c -1.83,5.31 -6.91,11.17 -11,4 h -20 c -1.53,0.01 -4.34,-0.07 -5.69,0.6 -3.93,1.94 -1.22,8.69 1.25,10.8 2.25,1.93 5.65,1.59 8.44,1.6 h 34 c 8.16,-0.02 13.85,-2.09 17.56,-10.01 1.36,-2.92 5.84,-12.48 2.83,-14.97 C 319.97,87.86 316.77,88.01 315,88 h -28 c 2.69,-4.9 7.31,-10.52 11,-3 h 19 c 3,-0.01 7.75,0.67 8.65,-3.15 C 327.58,73.68 319.16,71.08 313,71 h -30 c -8.41,0.01 -15.34,2.21 -19.92,10 -1.64,2.79 -5.57,12.49 -2.48,14.98 1.45,1.16 4.61,1.01 6.4,1.02 z"
     id="path925" />
  <path
     style="fill:#ff511c;stroke:none;stroke-width:1;fill-opacity:1"
     d="m 396,71 h -19 c -2.04,0 -5.63,-0.26 -7.3,0.99 -1.88,1.41 -3.27,6.71 -4.03,9.01 -1.27,3.79 -6.01,18.28 -7.75,20.83 -2.04,2.87 -7.04,4.93 -8.18,0 -0.54,-2.27 1.14,-6.55 1.95,-8.83 l 3.31,-9 4,-13 h -18 c -2.56,0.01 -6.23,-0.37 -8.16,1.6 -1.69,1.72 -4.55,11.54 -5.65,14.4 -2.07,6.56 -11.4,23.7 0,26.9 1.25,0.16 4.27,0.1 5.81,0 h 35 c 16.16,0 19.08,-14.26 23.33,-26.9 1.77,-5.26 3.82,-10.5 4.67,-16 z"
     id="path923" />
  <path
     style="fill:#ff511c;stroke:none;stroke-width:0.31999999;stroke-opacity:1;fill-opacity:1"
     d="m 143.53125,22.722656 c -0.404,0.002 -0.81086,0.0156 -1.13086,0.0332 h -14.7207 l -4.48047,14.044922 h 15.04101 c 1.6416,-0.0032 2.72606,0.06697 4.13086,-0.957031 2.4416,-1.7792 2.28864,-3.328472 3.05664,-5.763672 0.4096,-1.3056 3.4721,-6.367419 -0.78711,-7.324219 -0.304,-0.0256 -0.70537,-0.0352 -1.10937,-0.0332 z m -8.7588,2.869156 c 0.35861,0.09728 1.20568,0.125399 1.48016,0.419594 0.55511,0.437698 0.17782,2.215554 -2.18034,1.976875 z m -1.57323,5.498375 c 0.35861,0.09728 1.12461,0.09773 1.39909,0.391922 0.55512,0.437699 0.17587,2.215554 -2.18229,1.976875 z"
     transform="scale(3.125)"
     id="path921"
     inkscape:connector-curvature="0"
     sodipodi:nodetypes="scccccccscccccccc" />
  <path
     style="fill:#ff511c;stroke:none;stroke-width:1;fill-opacity:1"
     d="m 451,114 h 26 l 3,-9 c 1.98289,5.6582 3.00352,8.72992 9,9 10.08,0.15 11.05,-3.05 18,-10 l -3,10 h 25 l 14,-43 c -9.6544,0.0017 -19.30852,-0.04259 -28.96231,0.06878 L 499,84 496,71 h -24 c -2.48301,0.0444 -4.3493,-0.278547 -5.47729,0.202848 C 465.34688,71.704661 464.48291,75.896089 462.31,82 Z"
     id="path919"
     inkscape:connector-curvature="0"
     sodipodi:nodetypes="ccccccccccccscc" />
  <path
     style="fill:#ff511c;stroke:none;stroke-width:1;fill-opacity:1"
     d="M 533.80383,113.84713 549,114 l 7.42885,-0.1028 4.22854,-12.20293 L 571,71 h -16 l -7.27427,0.102799 c -5.46972,14.083281 -9.19883,28.400223 -13.9219,42.744331 z"
     id="path917"
     inkscape:connector-curvature="0"
     sodipodi:nodetypes="cccccccc" />
  <path
     style="fill:#ff511c;stroke:none;stroke-width:1;fill-opacity:1"
     d="m 575,71 c -1.33333,4.666667 -2.66667,9.333333 -4,14 h 11 c -3.33333,9.666667 -6.66667,19.33333 -10,29 8.73844,0.0408 17.47687,0.0815 26.21531,0.12229 3.41106,-9.58168 6.98409,-19.107313 10.16666,-28.768985 3.93891,-0.0048 7.87832,0.02601 11.81555,0.147336 1.32278,-4.818631 2.93199,-9.498971 4.16936,-14.561788 z"
     id="path915"
     inkscape:connector-curvature="0"
     sodipodi:nodetypes="ccccccccc" />
  <path
     style="fill:#4e8490;stroke:none;stroke-width:0.31999999;fill-opacity:1"
     d="M 68.458984 23.007812 C 67.596184 23.019813 66.740722 23.0885 65.919922 23.3125 C 62.524722 25.1333 62.37715 27.142791 61.21875 30.400391 C 60.45395 32.544391 59.123591 35.754259 62.400391 36.755859 C 62.934791 36.810259 63.757112 36.797459 64.320312 36.755859 L 73.919922 36.755859 C 79.244722 36.791059 80.265653 34.681678 81.814453 30.080078 C 82.179253 28.992078 82.756103 27.677347 82.845703 26.560547 C 83.066503 23.827747 81.864975 23.055063 79.359375 23.039062 L 71.039062 23.039062 C 70.191062 23.039062 69.321784 22.995812 68.458984 23.007812 z M 73.013672 26.003906 C 73.244072 26.008706 73.469734 26.062634 73.677734 26.240234 C 74.167334 26.704234 73.863334 27.606556 73.677734 28.160156 C 73.300134 29.536156 72.408706 32.823022 71.003906 33.357422 C 69.663106 33.872622 68.877144 33.026888 69.152344 31.679688 C 69.347544 30.703687 70.563125 27.350066 71.203125 26.697266 C 71.644725 26.246066 71.798712 26.282053 72.320312 26.064453 C 72.547513 26.043653 72.783272 25.999106 73.013672 26.003906 z "
     transform="scale(3.125)"
     id="path913" />
</svg>
