<svg width="218" height="92" viewBox="0 0 218 92" fill="none" xmlns="http://www.w3.org/2000/svg">
<path fill-rule="evenodd" clip-rule="evenodd" d="M18.8551 44.956C12.1547 43.5348 4.97826 45.6199 0.096979 50.2679C0 51.1211 0 51.8812 0 52.6413C0 61.3663 4.21124 69.5235 11.1967 74.6461C7.84648 72.0833 6.12437 67.913 6.60339 63.7369C7.17938 59.1851 10.2416 55.3905 14.6438 53.8732C15.5049 53.4946 16.269 53.3053 17.036 53.2092H17.418C21.4382 52.7345 24.9794 54.1586 28.5206 55.8651C30.1487 56.6252 31.8708 57.5717 33.4019 57.2863C34.742 57.1931 35.891 56.2437 37.1341 55.3905C36.1761 55.1051 35.0271 54.9158 34.166 54.4411C32.2529 53.681 30.8158 52.0705 29.1907 50.7425C26.3195 48.1827 22.9693 46.2868 19.3341 45.0521C19.1431 45.0521 19.0461 44.956 18.8551 44.956V44.956Z" fill="#DDA15E"/>
<path fill-rule="evenodd" clip-rule="evenodd" d="M27.4304 23.423C25.1705 23.3356 23.0869 24.285 21.5205 25.9217C21.6939 27.04 21.9555 27.9894 22.4786 28.9358C23.2603 30.4007 24.5651 31.6063 25.867 32.8964C25 29.6231 25.5202 26.0935 27.4304 23.423V23.423Z" fill="url(#paint0_linear_0_1)"/>
<path fill-rule="evenodd" clip-rule="evenodd" d="M37.6132 66.3928C28.8086 66.8675 20.2892 61.7449 17.036 53.2092C16.269 53.3053 15.5049 53.4946 14.6438 53.8732C10.2416 55.3905 7.17938 59.1851 6.60338 63.7369C6.12436 67.9101 7.84941 72.0833 11.1967 74.6461C11.4847 74.8354 11.7697 75.1208 12.0577 75.3101C20.6712 77.4913 29.7637 74.9315 35.7941 68.577C36.4641 67.913 37.0372 67.1558 37.6132 66.3958V66.3928Z" fill="url(#paint1_linear_0_1)"/>
<path fill-rule="evenodd" clip-rule="evenodd" d="M35.7941 68.5741C29.7638 74.9285 20.6712 77.4884 12.0577 75.3071C18.3761 79.7657 23.7364 85.4562 27.7536 92C31.7739 85.4562 37.0372 79.7657 43.3555 75.3071C45.6507 71.6057 46.8967 67.5286 47.1847 63.4515C45.8446 64.3048 44.3135 64.9687 42.6855 65.5366C40.9634 66.0113 39.3353 66.2967 37.6132 66.3899C37.0401 67.15 36.4641 67.9072 35.7941 68.5712V68.5741Z" fill="url(#paint2_linear_0_1)"/>
<path fill-rule="evenodd" clip-rule="evenodd" d="M47.1847 63.4515C47.6637 57.0009 45.5566 50.4572 41.2513 45.2414C43.5465 52.5452 42.1124 60.3208 37.6132 66.3928C39.3353 66.2967 40.9633 66.0142 42.6855 65.5395C44.3135 64.9717 45.8446 64.3077 47.1847 63.4544V63.4515Z" fill="#5E7043"/>
<path fill-rule="evenodd" clip-rule="evenodd" d="M56.8503 49.9825C55.7012 55.5798 52.257 60.5102 47.1847 63.4515C46.8967 67.5315 45.6536 71.6086 43.3555 75.3072C51.49 69.3313 56.4653 60.0355 56.8503 49.9825Z" fill="#5E7043"/>
<path fill-rule="evenodd" clip-rule="evenodd" d="M44.8866 34.8069C42.3975 32.8149 40.0053 30.7298 37.7072 28.6417C36.7492 30.159 35.6971 31.583 34.5481 33.0042C30.2428 24.4685 30.5278 14.5087 35.124 6.16226C35.6031 7.86882 36.1761 9.5783 36.8462 11.0956C38.1862 13.8447 40.0053 16.2182 41.9185 18.5887C43.1616 20.0099 44.4076 21.5301 45.6507 23.0473C46.5117 24.0899 47.2788 25.2286 48.1398 26.2741C46.7997 26.3673 45.4597 26.178 44.2166 25.514C44.9836 28.5485 45.2686 31.7753 44.8866 34.8098V34.8069ZM49.9589 24.7539C45.9387 19.0634 40.1963 14.0369 37.9952 7.58634C37.1342 5.11969 36.8462 2.55984 36.4641 0C25.9375 12.5196 26.7985 30.9191 38.4742 42.3961C39.4323 43.2494 40.3874 44.1988 41.2484 45.2414C45.5537 50.4572 47.6608 57.0038 47.1818 63.4515C52.2541 60.5131 55.6983 55.5798 56.8474 49.9825C57.5174 47.0411 57.2382 42.102 56.0833 37.9375C55.1135 34.4399 52.8301 28.831 49.956 24.7539H49.9589Z" fill="#353F26"/>
<path fill-rule="evenodd" clip-rule="evenodd" d="M36.8491 11.0956C36.179 9.5783 35.603 7.87174 35.127 6.16226C30.5337 14.5087 30.2457 24.4685 34.551 33.0042C35.7 31.583 36.7521 30.159 37.7101 28.6417C40.0082 30.7269 42.4004 32.8149 44.8895 34.8069C45.2716 31.7723 44.9865 28.5485 44.2195 25.5111C45.4655 26.1751 46.8027 26.3643 48.1427 26.2712C47.2817 25.2286 46.5147 24.0899 45.6536 23.0444C44.4076 21.5271 43.1645 20.0099 41.9214 18.5858C40.0082 16.2153 38.1891 13.8418 36.8491 11.0927V11.0956Z" fill="#5E7043"/>
<path fill-rule="evenodd" clip-rule="evenodd" d="M35.7 54.0625C35.221 53.6839 34.933 53.3053 34.551 52.8306C33.4019 51.4066 32.8289 49.5107 32.3499 47.6148C31.7768 45.1482 31.4888 42.5884 30.4367 40.311C29.5757 38.5083 28.2356 36.895 26.7985 35.2845C26.4165 34.8098 25.9375 34.3351 25.4585 33.9565C24.0244 32.5354 22.5873 31.2045 21.7262 29.594C21.1503 28.5514 20.8652 27.506 20.6742 26.2741C20.2921 24.186 20.3862 21.8155 20.1952 19.6342C16.654 22.3863 13.8798 25.9887 11.9637 30.0687C5.16928 34.7137 0.767022 42.2069 0.0969849 50.2679C4.97826 45.6229 12.1547 43.5348 18.8551 44.956C19.0461 44.956 19.1431 45.0521 19.3341 45.0521C22.9693 46.2869 26.3195 48.1827 29.1907 50.7426C30.8158 52.0705 32.2529 53.6839 34.166 54.4411C35.0271 54.9158 36.1761 55.1051 37.1342 55.3905C36.6551 54.9158 36.0821 54.5372 35.6971 54.0625H35.7ZM27.592 45.0259C26.775 44.3328 26.0756 43.6397 25.2586 43.0601C24.6768 42.5971 23.9744 42.2505 23.275 41.7875C23.275 41.7875 25.6377 41.8749 26.8103 42.3175C27.3275 42.5126 28.2415 43.063 28.4678 43.2698C28.8145 43.5872 28.9967 43.9862 28.9967 43.9862C29.32 44.79 29.4552 46.0655 29.5727 46.7616C28.8733 46.1849 28.1739 45.6054 27.5891 45.0288L27.592 45.0259Z" fill="url(#paint3_linear_0_1)"/>
<path fill-rule="evenodd" clip-rule="evenodd" d="M10.9968 47.8594C11.1967 47.8041 16.8332 49.4408 16.8332 49.4408C21.0209 49.7116 25.1058 51.7065 28.8703 53.5936C30.9657 54.5313 32.8788 55.8069 35.1387 55.6205C35.7088 55.7603 36.4582 55.4167 37.0989 55.4167C37.1106 55.4079 37.1253 55.3992 37.1371 55.3904C36.179 55.105 35.03 54.9158 34.1689 54.4411C32.2558 53.681 30.8187 52.0705 29.1936 50.7425C26.3224 48.1827 22.9723 46.2868 19.337 45.0521C19.146 45.0521 19.049 44.956 18.858 44.956C12.1576 43.5348 4.98119 45.6199 0.0999087 50.2678C0.00292969 51.1211 0.00292969 51.8812 0.00292969 52.6413C0.00292969 54.2547 0.376152 57.0883 0.975659 59.5928C2.07182 54.7177 6.51228 51.9162 9.32173 50.926C10.4149 50.5416 6.39473 49.5747 6.39473 49.5747C7.10885 49.4612 13.0951 49.3942 13.0951 49.3942C13.0951 49.3942 10.9998 48.0109 10.9998 47.8624L10.9968 47.8594Z" fill="#BC6C25"/>
<path d="M73.3984 81.5043C72.5227 81.5043 71.5352 81.382 70.7124 81.0413C70.5889 81.0005 70.5331 80.9044 70.5331 80.7705V71.6465C70.5331 71.4426 70.6154 71.4281 70.78 71.4281H71.644C71.8232 71.4281 71.8908 71.4426 71.8908 71.6465V74.3345C72.4786 74.1714 73.1927 74.0753 73.6717 74.0753C75.8229 74.0753 76.7809 75.5692 76.7809 77.701C76.7809 79.8327 75.7406 81.5014 73.3955 81.5014L73.3984 81.5043ZM73.3573 80.3773C74.5769 80.3773 75.4115 79.658 75.4115 77.7854C75.4115 76.0876 74.712 75.2343 73.5071 75.2343C73.178 75.2343 72.5609 75.2605 71.8908 75.4644V80.1764C72.3845 80.3249 72.9311 80.3802 73.3573 80.3802V80.3773Z" fill="#414F2F"/>
<path d="M79.2466 73.2482C78.7528 73.2482 78.3561 72.8551 78.3561 72.3658C78.3561 71.8765 78.7528 71.4834 79.2466 71.4834C79.7403 71.4834 80.137 71.8765 80.137 72.3658C80.137 72.8551 79.7403 73.2482 79.2466 73.2482ZM79.658 81.3529H78.8087C78.6441 81.3529 78.5618 81.3384 78.5618 81.1345V74.4393C78.5618 74.2354 78.6441 74.2209 78.8087 74.2209H79.658C79.8372 74.2209 79.9048 74.2354 79.9048 74.4393V81.1345C79.9048 81.3384 79.8372 81.3529 79.658 81.3529Z" fill="#414F2F"/>
<path d="M84.9183 81.5043C82.823 81.5043 81.7122 80.255 81.7122 77.7971C81.7122 75.3392 83.1228 74.0753 84.9595 74.0753C87.0842 74.0753 88.1921 75.4324 88.1921 77.7563C88.1921 80.0803 87.0695 81.5043 84.9183 81.5043ZM84.9859 75.1906C83.6694 75.1906 83.0552 76.3439 83.0552 77.7563C83.0552 79.3318 83.4931 80.389 84.933 80.389C86.373 80.389 86.8374 79.1396 86.8374 77.7971C86.8374 76.4545 86.5082 75.1906 84.9889 75.1906H84.9859Z" fill="#414F2F"/>
<path d="M92.7678 74.0753C93.1527 74.0753 93.7141 74.1015 94.3018 74.2529V71.6465C94.3018 71.4426 94.3694 71.4281 94.5487 71.4281H95.4127C95.5772 71.4281 95.6595 71.4426 95.6595 71.6465V80.7443C95.6595 80.8666 95.6037 80.9627 95.4802 81.0034C94.4928 81.4257 93.4378 81.5073 92.6296 81.5073C90.2875 81.5073 89.4235 80.0803 89.4235 77.9077C89.4235 75.8838 90.4226 74.0782 92.7678 74.0782V74.0753ZM92.8501 80.3628C93.2879 80.3628 93.9609 80.2812 94.3018 80.1327V75.4207C93.6582 75.2576 93.2879 75.2314 92.8618 75.2314C91.7098 75.2314 90.8194 75.9507 90.8194 77.9048C90.8194 79.6959 91.5717 80.3628 92.8471 80.3628H92.8501Z" fill="#414F2F"/>
<path d="M98.3984 73.2482C97.9047 73.2482 97.508 72.8551 97.508 72.3658C97.508 71.8765 97.9047 71.4834 98.3984 71.4834C98.8921 71.4834 99.2889 71.8765 99.2889 72.3658C99.2889 72.8551 98.8921 73.2482 98.3984 73.2482ZM98.8099 81.3529H97.9606C97.796 81.3529 97.7137 81.3384 97.7137 81.1345V74.4393C97.7137 74.2354 97.796 74.2209 97.9606 74.2209H98.8099C98.9891 74.2209 99.0567 74.2354 99.0567 74.4393V81.1345C99.0567 81.3384 98.9891 81.3529 98.8099 81.3529Z" fill="#414F2F"/>
<path d="M104.044 81.4228H103.441C103.071 81.4228 102.88 81.3413 102.674 80.7967L100.467 74.3753C100.441 74.2791 100.482 74.2267 100.591 74.2267H101.631C101.781 74.2267 101.796 74.2675 101.837 74.3636L103.001 77.8524L103.712 80.1735H103.794L104.479 77.8787L105.601 74.3607C105.642 74.2646 105.657 74.2238 105.807 74.2238H106.821C106.93 74.2238 106.971 74.2792 106.944 74.3723L104.808 80.7821C104.643 81.2568 104.52 81.4199 104.041 81.4199L104.044 81.4228Z" fill="#414F2F"/>
<path d="M114.003 77.037C114.003 77.9602 113.468 78.2048 112.866 78.2048H109.14C109.181 79.7803 110.098 80.3511 111.223 80.3511C111.826 80.3511 112.469 80.1618 112.84 79.9579C112.978 79.891 113.072 79.9172 113.128 80.0395L113.457 80.6773C113.524 80.8258 113.498 80.9219 113.374 80.9889C112.675 81.4111 111.852 81.5043 111.126 81.5043C109.031 81.5043 107.782 80.3919 107.782 77.8233C107.782 75.4469 109.181 74.0753 110.988 74.0753C113.072 74.0753 114.003 75.2431 114.003 77.0341V77.037ZM111.003 75.1906C109.88 75.1906 109.237 76.1808 109.195 77.1447H112.731C112.731 76.073 112.387 75.1906 111.006 75.1906H111.003Z" fill="#414F2F"/>
<path d="M119.566 76.0032C119.046 75.5139 118.414 75.2693 117.662 75.2693C117.43 75.2693 117.183 75.2955 116.963 75.3362V81.1345C116.963 81.3383 116.895 81.3529 116.716 81.3529H115.866C115.702 81.3529 115.62 81.3383 115.62 81.1345V75.2838C115.62 74.5383 115.811 74.2529 116.578 74.1422C116.907 74.1015 117.248 74.0753 117.577 74.0753C118.632 74.0753 119.563 74.3199 120.372 75.013C120.454 75.08 120.469 75.1615 120.398 75.2431L119.822 75.9886C119.725 76.1371 119.657 76.0701 119.56 76.0032H119.566Z" fill="#414F2F"/>
<path d="M123.716 81.5043C122.84 81.5043 121.77 81.3675 121.003 80.9481C120.895 80.8928 120.812 80.7996 120.906 80.6365L121.194 79.9987C121.262 79.8502 121.318 79.7949 121.524 79.891C122.249 80.2171 123.072 80.3802 123.716 80.3802C124.58 80.3802 125.032 80.0279 125.032 79.4425C125.032 78.8571 124.442 78.5455 123.416 78.1786C121.923 77.6369 121.197 77.1739 121.197 76.0731C121.197 74.879 122.088 74.0782 123.692 74.0782C124.445 74.0782 125.132 74.1859 125.858 74.4713C125.982 74.5267 126.023 74.649 125.982 74.7567L125.694 75.4761C125.638 75.5984 125.556 75.5838 125.461 75.543C124.709 75.2722 124.268 75.2023 123.654 75.2023C122.872 75.2023 122.517 75.5692 122.517 75.9886C122.517 76.5448 122.928 76.7633 124.066 77.1972C125.162 77.5903 126.325 78.0796 126.325 79.3843C126.325 80.8229 125.147 81.5014 123.722 81.5014L123.716 81.5043Z" fill="#414F2F"/>
<path d="M128.715 73.2482C128.221 73.2482 127.824 72.8551 127.824 72.3658C127.824 71.8765 128.221 71.4834 128.715 71.4834C129.208 71.4834 129.605 71.8765 129.605 72.3658C129.605 72.8551 129.208 73.2482 128.715 73.2482ZM129.126 81.3529H128.277C128.112 81.3529 128.03 81.3384 128.03 81.1345V74.4393C128.03 74.2354 128.112 74.2209 128.277 74.2209H129.126C129.305 74.2209 129.373 74.2354 129.373 74.4393V81.1345C129.373 81.3384 129.305 81.3529 129.126 81.3529Z" fill="#414F2F"/>
<path d="M130.772 75.0683V74.6199C130.772 74.4713 130.813 74.4014 130.992 74.3607L132.047 74.1422L132.279 72.8376C132.32 72.6337 132.388 72.6192 132.567 72.5522L133.076 72.3629C133.226 72.3221 133.308 72.3483 133.308 72.5522V74.2238H134.748C134.954 74.2238 134.968 74.3199 134.968 74.4422V75.0654C134.968 75.2139 134.954 75.2838 134.748 75.2838H133.308V79.5211C133.308 80.1181 133.569 80.3365 134.157 80.3365C134.389 80.3365 134.924 80.2812 135.198 80.2404C135.377 80.1997 135.418 80.255 135.43 80.3627L135.568 81.0675C135.583 81.1753 135.609 81.2568 135.444 81.3121C134.883 81.4898 134.198 81.5014 133.922 81.5014C132.482 81.5014 131.962 80.9044 131.962 79.5997V75.2809H130.989C130.783 75.2809 130.769 75.1848 130.769 75.0625L130.772 75.0683Z" fill="#414F2F"/>
<path d="M137.51 84.1923C137.278 84.1923 136.84 84.1661 136.388 84.0438C136.238 84.003 136.182 83.936 136.223 83.8137L136.388 83.1352C136.429 82.9721 136.485 82.9575 136.635 82.9983C136.949 83.0653 137.046 83.0944 137.305 83.0944C137.963 83.0944 138.319 82.876 138.539 82.212L138.853 81.2743H138.565C138.277 81.2743 138.057 81.2597 137.895 80.7326L135.868 74.3781C135.841 74.282 135.882 74.2296 135.991 74.2296H137.046C137.196 74.2296 137.211 74.2704 137.252 74.3665L138.292 77.7214L139.033 80.2346H139.115L139.938 77.7097L141.06 74.3694C141.102 74.2733 141.116 74.2325 141.266 74.2325H142.28C142.389 74.2325 142.43 74.2879 142.403 74.3811L139.691 82.5003C139.265 83.7497 138.595 84.1981 137.513 84.1981L137.51 84.1923Z" fill="#414F2F"/>
<path d="M146.512 74.0753C146.897 74.0753 147.458 74.1015 148.046 74.2529V71.6465C148.046 71.4426 148.113 71.4281 148.293 71.4281H149.157C149.321 71.4281 149.404 71.4426 149.404 71.6465V80.7443C149.404 80.8666 149.348 80.9627 149.224 81.0034C148.237 81.4257 147.182 81.5073 146.374 81.5073C144.031 81.5073 143.167 80.0803 143.167 77.9077C143.167 75.8838 144.167 74.0782 146.512 74.0782V74.0753ZM146.594 80.3628C147.032 80.3628 147.705 80.2812 148.046 80.1327V75.4207C147.402 75.2576 147.032 75.2314 146.606 75.2314C145.454 75.2314 144.563 75.9507 144.563 77.9048C144.563 79.6959 145.316 80.3628 146.591 80.3628H146.594Z" fill="#BC6C25"/>
<path d="M152.142 73.2482C151.649 73.2482 151.252 72.8551 151.252 72.3658C151.252 71.8765 151.649 71.4834 152.142 71.4834C152.636 71.4834 153.033 71.8765 153.033 72.3658C153.033 72.8551 152.636 73.2482 152.142 73.2482ZM152.554 81.3529H151.705C151.54 81.3529 151.458 81.3384 151.458 81.1345V74.4393C151.458 74.2354 151.54 74.2209 151.705 74.2209H152.554C152.733 74.2209 152.801 74.2354 152.801 74.4393V81.1345C152.801 81.3384 152.733 81.3529 152.554 81.3529Z" fill="#BC6C25"/>
<path d="M160.677 74.55C160.8 74.5907 160.856 74.6869 160.856 74.8208V80.753C160.856 83.1702 159.692 84.0526 157.335 84.3787C157.185 84.3933 157.129 84.3787 157.088 84.2302L156.98 83.374C156.98 83.2663 157.035 83.1964 157.129 83.1847C158.705 82.9663 159.472 82.5178 159.472 81.3238V81.2568C158.881 81.4199 158.196 81.516 157.717 81.516C155.566 81.516 154.608 80.022 154.608 77.8903C154.608 75.7585 155.648 74.0898 157.993 74.0898C158.869 74.0898 159.857 74.2122 160.68 74.5529L160.677 74.55ZM158.032 75.214C156.812 75.214 155.978 75.9333 155.978 77.8058C155.978 79.5037 156.677 80.3599 157.882 80.3599C158.211 80.3599 158.828 80.3336 159.498 80.1298V75.4178C159.004 75.2693 158.458 75.214 158.032 75.214V75.214Z" fill="#BC6C25"/>
<path d="M163.58 73.2482C163.086 73.2482 162.69 72.8551 162.69 72.3658C162.69 71.8765 163.086 71.4834 163.58 71.4834C164.074 71.4834 164.471 71.8765 164.471 72.3658C164.471 72.8551 164.074 73.2482 163.58 73.2482ZM163.992 81.3529H163.142C162.978 81.3529 162.895 81.3384 162.895 81.1345V74.4393C162.895 74.2354 162.978 74.2209 163.142 74.2209H163.992C164.171 74.2209 164.238 74.2354 164.238 74.4393V81.1345C164.238 81.3384 164.171 81.3529 163.992 81.3529Z" fill="#BC6C25"/>
<path d="M165.634 75.0683V74.6199C165.634 74.4713 165.675 74.4014 165.855 74.3607L166.91 74.1422L167.142 72.8376C167.183 72.6337 167.251 72.6192 167.43 72.5522L167.938 72.3629C168.088 72.3221 168.17 72.3483 168.17 72.5522V74.2238H169.61C169.816 74.2238 169.831 74.3199 169.831 74.4422V75.0654C169.831 75.2139 169.816 75.2838 169.61 75.2838H168.17V79.5211C168.17 80.1181 168.432 80.3365 169.02 80.3365C169.252 80.3365 169.787 80.2812 170.06 80.2404C170.239 80.1997 170.28 80.255 170.292 80.3627L170.43 81.0675C170.445 81.1753 170.471 81.2568 170.307 81.3121C169.746 81.4898 169.061 81.5014 168.785 81.5014C167.345 81.5014 166.824 80.9044 166.824 79.5997V75.2809H165.852C165.646 75.2809 165.631 75.1848 165.631 75.0625L165.634 75.0683Z" fill="#BC6C25"/>
<path d="M176.925 81.0413C176.102 81.4082 175.062 81.5043 174.186 81.5043C171.803 81.5043 171.2 80.4443 171.2 79.2357C171.2 78.0271 171.926 76.804 174.242 76.804H175.805V76.5594C175.805 75.7585 175.532 75.2285 174.257 75.2285C173.598 75.2285 172.775 75.3916 172.367 75.4993C172.188 75.5547 172.105 75.5547 172.064 75.3916L171.885 74.7276C171.844 74.6053 171.885 74.5092 172.008 74.4684C172.734 74.183 173.763 74.0753 174.489 74.0753C176.352 74.0753 177.16 74.9577 177.16 76.4924V80.6481C177.16 80.8374 177.078 80.9743 176.928 81.0413H176.925ZM174.321 77.9456C173.663 77.9456 172.555 78.0417 172.555 79.2357C172.555 80.1181 173.184 80.4035 174.171 80.4035C174.474 80.4035 175.226 80.3627 175.788 80.1734V77.9456H174.321Z" fill="#BC6C25"/>
<path d="M181.527 81.3413C181.183 81.4898 180.719 81.5043 180.404 81.5043C179.432 81.5043 179.076 81.0821 179.076 80.1065V71.6465C179.076 71.4426 179.144 71.4281 179.323 71.4281H180.199C180.378 71.4281 180.446 71.4426 180.446 71.6465V79.7395C180.446 80.2288 180.569 80.3365 180.898 80.3365C181.063 80.3365 181.242 80.322 181.392 80.3103C181.542 80.2987 181.583 80.3103 181.598 80.4589L181.68 81.0559C181.695 81.2189 181.695 81.2452 181.53 81.3413H181.527Z" fill="#BC6C25"/>
<path d="M182.171 75.0683V74.6199C182.171 74.4713 182.212 74.4014 182.391 74.3607L183.446 74.1422L183.678 72.8376C183.719 72.6337 183.787 72.6192 183.966 72.5522L184.475 72.3629C184.624 72.3221 184.707 72.3483 184.707 72.5522V74.2238H186.147C186.352 74.2238 186.367 74.3199 186.367 74.4422V75.0654C186.367 75.2139 186.352 75.2838 186.147 75.2838H184.707V79.5211C184.707 80.1181 184.968 80.3365 185.556 80.3365C185.788 80.3365 186.323 80.2812 186.596 80.2404C186.776 80.1997 186.817 80.255 186.829 80.3627L186.967 81.0675C186.981 81.1753 187.008 81.2568 186.843 81.3121C186.282 81.4898 185.597 81.5014 185.321 81.5014C183.881 81.5014 183.361 80.9044 183.361 79.5997V75.2809H182.388C182.182 75.2809 182.168 75.1848 182.168 75.0625L182.171 75.0683Z" fill="#BC6C25"/>
<path d="M191.598 78.4057L190.858 80.8229C190.749 81.2015 190.596 81.4199 190.117 81.4199H189.526C189.185 81.4199 188.939 81.3238 188.815 80.7675L187.405 74.3461C187.378 74.25 187.419 74.1976 187.528 74.1976H188.568C188.718 74.1976 188.733 74.2384 188.774 74.3345L189.459 78.0009L189.829 79.9696H189.911L190.432 78.1902L191.307 75.0392C191.404 74.7538 191.528 74.4684 192.06 74.4684H192.524C192.962 74.4684 193.073 74.713 193.182 75.08L194.005 77.9718L194.608 80.089H194.69L195.06 77.998L195.745 74.3315C195.786 74.2354 195.801 74.1947 195.951 74.1947H196.991C197.1 74.1947 197.141 74.25 197.114 74.3432L195.689 80.7646C195.566 81.3209 195.263 81.417 194.922 81.417H194.372C193.893 81.417 193.785 81.2947 193.632 80.82L192.891 78.3213L192.274 76.0119H192.218L191.589 78.3999L191.598 78.4057Z" fill="#BC6C25"/>
<path d="M199.257 73.2482C198.763 73.2482 198.366 72.8551 198.366 72.3658C198.366 71.8765 198.763 71.4834 199.257 71.4834C199.75 71.4834 200.147 71.8765 200.147 72.3658C200.147 72.8551 199.75 73.2482 199.257 73.2482ZM199.668 81.3529H198.819C198.654 81.3529 198.572 81.3384 198.572 81.1345V74.4393C198.572 74.2354 198.654 74.2209 198.819 74.2209H199.668C199.847 74.2209 199.915 74.2354 199.915 74.4393V81.1345C199.915 81.3384 199.847 81.3529 199.668 81.3529Z" fill="#BC6C25"/>
<path d="M207.75 81.3529H206.9C206.736 81.3529 206.653 81.3383 206.653 81.1345V77.5495C206.653 76.0032 206.201 75.2547 204.517 75.2547C204.311 75.2547 203.9 75.2547 203.339 75.3508V81.1345C203.339 81.3383 203.271 81.3529 203.092 81.3529H202.242C202.078 81.3529 201.996 81.3383 201.996 81.1345V75.3246C201.996 74.6577 202.187 74.2937 202.954 74.183C203.324 74.1422 204.2 74.0753 204.626 74.0753C206.968 74.0753 207.996 75.0538 207.996 77.5117V81.1374C207.996 81.3413 207.929 81.3558 207.75 81.3558V81.3529Z" fill="#BC6C25"/>
<path d="M77.6155 49.1088V62.3507H84.3365C87.3663 62.3507 90.7077 61.7712 92.0595 60.5771C93.4819 59.4181 94.1784 57.5746 94.1784 55.0789C94.1784 52.0385 93.3379 49.7961 91.7333 48.3138C90.1258 46.8315 86.5288 46.1063 83.2433 46.1063H82.8406C81.1979 46.1063 77.6155 47.4459 77.6155 49.1088ZM77.6155 32.3577V43.7183H83.352C86.3466 43.7183 89.6145 43.1388 90.9663 42.0176C92.3181 40.8585 93.0117 39.0151 93.0117 36.4814C93.0117 33.9478 92.2447 32.25 90.7488 31.0909C89.2883 29.9697 85.9087 29.3902 82.8788 29.3552C82.0384 29.3552 79.079 29.6435 78.4942 30.2231C77.9094 30.8026 77.6185 31.5248 77.6185 32.3577H77.6155ZM87.3487 64.7737H70.5331V31.4549C70.5331 28.9592 72.5785 26.9323 75.097 26.9323H84.0455C86.4171 26.9323 89.541 27.04 91.1103 27.2584C92.6796 27.5118 93.8845 27.838 94.7602 28.3068C96.2943 29.1397 97.4992 30.2609 98.3749 31.7432C99.2889 33.1906 99.7268 34.7836 99.7268 36.5542C99.7268 38.6539 99.1419 40.4246 98.0487 41.7991C96.9173 43.1737 95.2745 44.1493 93.1204 44.6939C95.6771 45.3812 97.6461 46.5752 98.9979 48.2759C100.385 49.9767 101.079 52.0735 101.079 54.642C101.079 58.0785 99.9472 60.6121 97.6843 62.275C95.4567 63.9378 92.0243 64.7707 87.3516 64.7707L87.3487 64.7737Z" fill="#414F2F"/>
<path d="M168.138 32.7741V58.9317C168.138 60.5946 169.49 61.9342 171.168 61.9342C173.504 61.9342 174.836 61.8614 176.916 61.2819C178.412 60.8829 179.655 60.2684 180.64 59.4006C182.209 58.061 183.414 56.2175 184.254 53.8644C185.095 51.5143 185.494 48.8001 185.494 45.7248C185.494 40.5876 184.143 36.6445 181.442 33.8953C178.192 30.6045 175.438 29.9143 171.277 29.7716C170.401 29.7716 169.669 30.025 169.049 30.6395C168.464 31.219 168.135 31.9412 168.135 32.7741H168.138ZM161.129 60.2335V31.4374C161.129 28.9416 163.175 26.9147 165.693 26.9147H170.474C177.921 26.9147 182.647 28.6504 186.811 32.1596C191.01 35.6689 193.126 40.4799 193.126 46.6683C193.126 52.0938 191.41 56.4738 187.978 59.8025C184.583 63.0933 180.055 64.7591 174.471 64.7591H165.693C163.175 64.7591 161.129 62.7322 161.129 60.2364V60.2335Z" fill="#BC6C25"/>
<path d="M113.897 26.9323H106.888V64.7737H113.897V26.9323Z" fill="#414F2F"/>
<path d="M149.597 45.8529C149.597 40.6808 148.501 36.5192 146.238 33.2983C144.049 30.0774 141.163 28.4873 137.66 28.4873C134.157 28.4873 131.307 30.0803 129.082 33.2983C126.854 36.5192 125.723 40.6779 125.723 45.8529C125.723 51.0279 126.854 55.1866 129.082 58.3696C131.31 61.5906 134.193 63.1806 137.66 63.1806C141.128 63.1806 144.014 61.5877 146.238 58.4046C148.466 55.1837 149.597 51.025 149.597 45.85V45.8529ZM137.66 65.6415C134.995 65.6415 132.512 65.1697 130.175 64.1941C127.804 63.2534 125.72 61.8439 123.86 59.9976C121.997 58.1891 120.61 56.0544 119.625 53.6315C118.676 51.2085 118.203 48.6399 118.203 45.8529C118.203 43.0659 118.679 40.4275 119.663 38.0016C120.613 35.6136 122.035 33.4789 123.898 31.6704C125.761 29.8619 127.877 28.4873 130.252 27.5088C132.623 26.5332 135.071 26.0615 137.663 26.0615C139.744 26.0615 141.751 26.3876 143.723 27.0021C145.695 27.6544 147.52 28.5951 149.236 29.8241C151.793 31.6704 153.762 33.9856 155.152 36.7348C156.504 39.4839 157.197 42.5243 157.197 45.8529C157.197 48.6399 156.724 51.2434 155.737 53.6315C154.752 56.0544 153.327 58.1891 151.467 59.9976C149.568 61.8439 147.449 63.2534 145.113 64.1941C142.777 65.1697 140.293 65.6415 137.666 65.6415H137.66Z" fill="#414F2F"/>
<path d="M200.949 64.7561V32.7392C200.949 31.1112 199.597 29.7716 197.955 29.7716H190.981V26.9147H217.997V29.7716H210.988C209.345 29.7716 207.993 31.1112 207.993 32.7392V64.7561H200.946H200.949Z" fill="#BC6C25"/>
<defs>
<linearGradient id="paint0_linear_0_1" x1="21.2884" y1="34.8447" x2="25.4793" y2="25.1948" gradientUnits="userSpaceOnUse">
<stop stop-color="#D79B58"/>
<stop offset="1" stop-color="#6E3E18"/>
</linearGradient>
<linearGradient id="paint1_linear_0_1" x1="25.9962" y1="72.7677" x2="9.81747" y2="52.2624" gradientUnits="userSpaceOnUse">
<stop stop-color="#D79B58"/>
<stop offset="1" stop-color="#6E3E18"/>
</linearGradient>
<linearGradient id="paint2_linear_0_1" x1="23.7217" y1="80.2375" x2="40.362" y2="65.0545" gradientUnits="userSpaceOnUse">
<stop stop-color="#D79B58"/>
<stop offset="1" stop-color="#414F2F"/>
</linearGradient>
<linearGradient id="paint3_linear_0_1" x1="33.1815" y1="43.2727" x2="20.44" y2="38.5854" gradientUnits="userSpaceOnUse">
<stop stop-color="#D79B58"/>
<stop offset="1" stop-color="#BC6C25"/>
</linearGradient>
</defs>
</svg>
