<?xml version="1.0" encoding="UTF-8"?><svg id="Livello_2" xmlns="http://www.w3.org/2000/svg" viewBox="0 0 1201 178"><defs><style>.cls-1{fill:#f7e929;}.cls-2{fill:#656464;}.cls-3{fill:#2c4390;}</style></defs><g><path class="cls-2" d="m279.39,126.1c-1.08,0-1.79-.23-2.14-.69s-.52-1.08-.52-1.85V52c0-.77.17-1.38.52-1.85.35-.46,1.02-.69,2.02-.69h25.16c6.69,0,12.23,1.04,16.62,3.12,4.39,2.08,7.85,4.85,10.39,8.31,2.54,3.46,4.33,7.5,5.37,12.12,1.04,4.62,1.56,9.46,1.56,14.54s-.5,10.06-1.5,14.72c-1,4.66-2.77,8.75-5.31,12.29-2.54,3.54-6,6.35-10.39,8.43-4.39,2.08-9.97,3.12-16.74,3.12h-25.05Zm39.94-37.74c0-8.16-1.31-14.12-3.92-17.89-2.62-3.77-6.69-5.66-12.23-5.66h-8.2v45.94h7.39c2.62,0,4.96-.4,7.04-1.21,2.08-.81,3.85-2.1,5.31-3.87,1.46-1.77,2.6-4.08,3.4-6.93.81-2.85,1.21-6.31,1.21-10.39Z"/><path class="cls-2" d="m366.76,101.75c.08,2.23.42,4.04,1.04,5.42.62,1.39,1.44,2.48,2.48,3.29,1.04.81,2.31,1.35,3.81,1.62,1.5.27,3.21.4,5.14.4,1.77,0,3.88-.12,6.35-.35,2.46-.23,4.89-.5,7.27-.81,1.54-.15,2.5-.13,2.89.06.38.19.73,1.02,1.04,2.48l.92,5.43c.23,1.31.23,2.33,0,3.06-.23.73-1.23,1.44-3,2.13-1.15.39-2.52.75-4.1,1.1-1.58.35-3.19.63-4.85.87-1.66.23-3.33.4-5.02.52-1.69.12-3.23.17-4.62.17-5.77,0-10.45-.81-14.02-2.42-3.58-1.62-6.35-3.75-8.31-6.41-1.96-2.66-3.29-5.73-3.98-9.23-.69-3.5-1.04-7.17-1.04-11.02,0-2.77.23-5.89.69-9.35.46-3.46,1.58-6.73,3.35-9.81,1.77-3.08,4.4-5.66,7.91-7.73,3.5-2.08,8.29-3.12,14.37-3.12,5.54,0,10,.79,13.39,2.37,3.39,1.58,6.02,3.64,7.91,6.18,1.88,2.54,3.17,5.37,3.87,8.48.69,3.12,1.04,6.21,1.04,9.29,0,2.39-.44,4.21-1.33,5.48-.89,1.27-2.56,1.9-5.02,1.9h-28.16Zm8.31-20.2c-2.69,0-4.67.83-5.94,2.48-1.27,1.66-1.98,4.1-2.14,7.33h16.04c0-2.77-.58-5.1-1.73-6.98-1.15-1.88-3.23-2.83-6.23-2.83Z"/><path class="cls-2" d="m456.45,108.14c0,3.61-.71,6.62-2.14,9.04-1.42,2.42-3.33,4.36-5.71,5.81-2.39,1.46-5.1,2.51-8.14,3.17-3.04.65-6.21.98-9.52.98-1.38,0-2.89-.06-4.5-.17-1.62-.12-3.25-.29-4.91-.51-1.66-.23-3.23-.5-4.73-.8-1.5-.3-2.83-.65-3.98-1.03-1.92-.69-3.16-1.39-3.69-2.12-.54-.73-.62-1.85-.23-3.38l1.27-5.5c.23-1.07.58-1.73,1.04-1.96.46-.23,1.35-.23,2.65,0,2.69.46,5.62.83,8.77,1.1,3.15.27,5.73.4,7.73.4,2.92,0,5-.33,6.23-.98,1.23-.66,1.85-1.75,1.85-3.3,0-1.7-.46-2.83-1.38-3.41-.92-.58-2.62-1.02-5.08-1.33-3.16-.46-6.1-1-8.83-1.62-2.73-.62-5.14-1.54-7.21-2.78-2.08-1.23-3.71-2.89-4.91-4.98-1.19-2.08-1.79-4.82-1.79-8.22,0-3.08.59-5.78,1.78-8.1,1.19-2.31,2.81-4.24,4.87-5.79,2.06-1.54,4.53-2.7,7.4-3.47,2.87-.77,6-1.16,9.38-1.16,1.31,0,2.75.06,4.33.18,1.58.12,3.17.27,4.79.46,1.62.19,3.17.45,4.67.76,1.5.31,2.87.7,4.1,1.16,1.54.54,2.67,1.11,3.41,1.69.73.58.9,1.61.52,3.08l-1.27,5.94c-.31,1.08-.63,1.74-.98,1.97s-1.17.27-2.48.12c-1.31-.15-2.73-.33-4.27-.52-1.54-.19-3.06-.35-4.56-.46-1.5-.12-2.91-.21-4.21-.29-1.31-.08-2.42-.12-3.35-.12-2.93-.08-4.75.25-5.48.98-.73.73-1.1,1.71-1.1,2.93,0,1.46.67,2.4,2.03,2.82,1.35.42,3.07.83,5.16,1.21,3.01.38,5.87.86,8.57,1.44,2.7.58,5.08,1.51,7.13,2.82s3.69,3.05,4.93,5.24c1.24,2.19,1.85,5.08,1.85,8.69Z"/><path class="cls-2" d="m505.96,120.91c.23.85.13,1.62-.29,2.31-.42.69-1.02,1.15-1.79,1.38-1.39.46-2.87.85-4.44,1.15-1.58.31-3.14.56-4.67.75-1.54.19-2.98.33-4.33.4-1.35.08-2.48.12-3.4.12-3.62,0-6.54-.52-8.77-1.56-2.23-1.04-3.96-2.4-5.19-4.1-1.23-1.69-2.06-3.64-2.48-5.83-.42-2.19-.63-4.48-.63-6.87v-25.74h-5.08c-.92,0-1.56-.21-1.9-.63-.35-.42-.52-1.06-.52-1.9v-8.66c0-.85.17-1.48.52-1.91.35-.42.98-.63,1.9-.63h5.19v-11.31c0-.92.23-1.6.69-2.02.46-.42,1.08-.75,1.85-.98l11.66-3.12c.85-.31,1.54-.29,2.08.06.54.35.81.98.81,1.9v15.47h11.77c1.08,0,1.75.19,2.02.58.27.39.4,1,.4,1.85v8.77c0,.85-.14,1.48-.4,1.9-.27.42-.94.63-2.02.63h-11.89l.12,21.47c0,1.08.06,2,.17,2.77.12.77.4,1.41.87,1.9.46.5,1.15.89,2.08,1.15.92.27,2.23.4,3.92.4.92,0,2.12-.04,3.58-.12,1.46-.08,2.92-.19,4.39-.35.77,0,1.38.08,1.85.23.46.15.77.88.92,2.19l1.04,8.31Z"/><path class="cls-2" d="m531.01,54.08c0,1.08-.12,2.14-.35,3.17-.23,1.04-.67,1.96-1.33,2.77-.65.81-1.58,1.46-2.77,1.96-1.19.5-2.75.75-4.67.75s-3.62-.25-4.85-.75c-1.23-.5-2.18-1.17-2.83-2.02-.65-.85-1.08-1.77-1.27-2.77-.19-1-.29-2.04-.29-3.12,0-2.38.61-4.4,1.85-6.06,1.23-1.65,3.69-2.48,7.39-2.48,1.85,0,3.37.21,4.56.63,1.19.42,2.14,1.02,2.83,1.79.69.77,1.15,1.67,1.38,2.71.23,1.04.35,2.17.35,3.41Zm-.58,69.49c0,.62-.14,1.19-.4,1.73-.27.54-.91.81-1.9.81h-12.7c-1,0-1.67-.23-2.02-.69-.35-.46-.52-1.08-.52-1.85v-51.94c0-.85.17-1.48.52-1.9.35-.42,1.02-.63,2.02-.63h12.7c1,0,1.63.29,1.9.87.27.58.4,1.14.4,1.67v51.94Z"/><path class="cls-2" d="m595.24,125.35c-.27.5-.94.75-2.02.75h-12.7c-1.69,0-2.54-.81-2.54-2.42,0-5.08.02-10.12.06-15.12.04-5,.06-10.04.06-15.12,0-3.23-.56-5.52-1.67-6.87-1.12-1.35-2.91-2.02-5.37-2.02-1.85,0-3.85.44-6,1.33-2.16.89-3.92,1.56-5.31,2.02v35.78c0,.62-.14,1.17-.4,1.67-.27.5-.94.75-2.02.75h-12.58c-1,0-1.67-.21-2.02-.63-.35-.42-.52-1.02-.52-1.79v-51.94c0-.77.17-1.39.52-1.85.35-.46,1.02-.69,2.02-.69h12.58c1.08,0,1.75.27,2.02.81.27.54.4,1.12.4,1.73v2.77c.08,0,.13.02.17.06.04.04.1.06.17.06,2.54-1.92,5.5-3.48,8.89-4.67,3.39-1.19,6.46-1.79,9.23-1.79,4.08,0,7.29.67,9.64,2.02,2.35,1.35,4.1,3.12,5.25,5.31s1.86,4.64,2.14,7.33c.27,2.69.4,5.39.4,8.08v32.78c0,.62-.14,1.17-.4,1.67Z"/><path class="cls-2" d="m641.47,119.18c-1.54,1.39-3.19,2.58-4.96,3.58-1.77,1-3.58,1.83-5.42,2.48-1.85.65-3.66,1.11-5.42,1.38-1.77.27-3.39.4-4.85.4-3.39,0-6.14-.48-8.25-1.44-2.12-.96-3.75-2.21-4.91-3.75-1.15-1.54-1.94-3.33-2.37-5.37-.42-2.04-.63-4.17-.63-6.41-.08-3.54.4-6.54,1.44-9,1.04-2.46,2.52-4.44,4.44-5.94,1.92-1.5,4.27-2.58,7.04-3.23,2.77-.65,5.85-.98,9.23-.98h13.27v-1.85c0-1.23-.13-2.27-.4-3.12-.27-.85-.77-1.54-1.5-2.08-.73-.54-1.75-.94-3.06-1.21-1.31-.27-3.04-.4-5.19-.4-.85,0-1.9.04-3.17.12-1.27.08-2.6.16-3.98.23-1.38.08-2.77.19-4.16.35-1.38.16-2.65.27-3.81.35-1.62.16-2.67.16-3.17,0-.5-.15-.91-.81-1.21-1.96l-1.27-6c-.16-1-.02-1.83.4-2.48.42-.65,1.52-1.33,3.29-2.02,1.31-.46,2.83-.87,4.56-1.21s3.5-.63,5.31-.87c1.81-.23,3.6-.4,5.37-.52,1.77-.12,3.31-.17,4.62-.17,5.38,0,9.71.5,12.99,1.5,3.27,1,5.77,2.42,7.5,4.27s2.87,4.12,3.41,6.81c.54,2.69.81,5.77.81,9.23v18.24c0,1.23.06,2.19.17,2.89.12.69.33,1.21.63,1.56.31.35.73.6,1.27.75.54.16,1.27.27,2.19.35,1,.08,1.65.25,1.96.52.31.27.46.75.46,1.44v7.39c0,1.54-1.12,2.54-3.35,3-2.16.54-4.54.81-7.16.81-2.85,0-5.35-.48-7.5-1.44-2.16-.96-3.62-2.98-4.39-6.06l-.23-.12Zm-1.73-17.08h-10.39c-2.16,0-3.85.5-5.08,1.5-1.23,1-1.85,2.85-1.85,5.54,0,1.77.36,3,1.1,3.69.73.69,2.1,1.04,4.1,1.04,1.77,0,3.83-.42,6.18-1.27,2.35-.85,4.33-1.77,5.94-2.77v-7.73Z"/><path class="cls-2" d="m711.53,120.91c.23.85.13,1.62-.29,2.31-.42.69-1.02,1.15-1.79,1.38-1.38.46-2.87.85-4.44,1.15-1.58.31-3.14.56-4.67.75-1.54.19-2.98.33-4.33.4-1.35.08-2.48.12-3.41.12-3.62,0-6.54-.52-8.77-1.56-2.23-1.04-3.96-2.4-5.19-4.1-1.23-1.69-2.06-3.64-2.48-5.83-.42-2.19-.63-4.48-.63-6.87v-25.74h-5.08c-.92,0-1.56-.21-1.9-.63-.35-.42-.52-1.06-.52-1.9v-8.66c0-.85.17-1.48.52-1.91.35-.42.98-.63,1.9-.63h5.19v-11.31c0-.92.23-1.6.69-2.02.46-.42,1.08-.75,1.85-.98l11.66-3.12c.85-.31,1.54-.29,2.08.06.54.35.81.98.81,1.9v15.47h11.77c1.08,0,1.75.19,2.02.58.27.39.4,1,.4,1.85v8.77c0,.85-.13,1.48-.4,1.9-.27.42-.94.63-2.02.63h-11.89l.12,21.47c0,1.08.06,2,.17,2.77.12.77.4,1.41.87,1.9.46.5,1.15.89,2.08,1.15.92.27,2.23.4,3.92.4.92,0,2.12-.04,3.58-.12,1.46-.08,2.92-.19,4.39-.35.77,0,1.39.08,1.85.23.46.15.77.88.92,2.19l1.04,8.31Z"/><path class="cls-2" d="m736.58,54.08c0,1.08-.12,2.14-.35,3.17-.23,1.04-.67,1.96-1.33,2.77-.65.81-1.58,1.46-2.77,1.96-1.19.5-2.75.75-4.67.75s-3.62-.25-4.85-.75c-1.23-.5-2.17-1.17-2.83-2.02-.65-.85-1.08-1.77-1.27-2.77-.19-1-.29-2.04-.29-3.12,0-2.38.62-4.4,1.85-6.06,1.23-1.65,3.69-2.48,7.39-2.48,1.85,0,3.37.21,4.56.63,1.19.42,2.13,1.02,2.83,1.79.69.77,1.15,1.67,1.39,2.71.23,1.04.35,2.17.35,3.41Zm-.58,69.49c0,.62-.13,1.19-.4,1.73-.27.54-.91.81-1.91.81h-12.7c-1,0-1.67-.23-2.02-.69-.35-.46-.52-1.08-.52-1.85v-51.94c0-.85.17-1.48.52-1.9.35-.42,1.02-.63,2.02-.63h12.7c1,0,1.63.29,1.91.87.27.58.4,1.14.4,1.67v51.94Z"/><path class="cls-2" d="m800.98,96.78c0,3.16-.23,6.5-.69,10.04-.46,3.54-1.62,6.81-3.46,9.81-1.85,3-4.6,5.48-8.25,7.45-3.66,1.96-8.64,2.94-14.95,2.94s-11.1-.98-14.6-2.94c-3.5-1.96-6.14-4.44-7.91-7.45-1.77-3-2.87-6.27-3.29-9.81-.42-3.54-.63-6.89-.63-10.04,0-2.62.27-5.58.81-8.89.54-3.31,1.71-6.44,3.52-9.41,1.81-2.96,4.46-5.44,7.96-7.45,3.5-2,8.21-3,14.14-3s10.69.87,14.31,2.6c3.62,1.73,6.39,3.98,8.31,6.75,1.92,2.77,3.19,5.87,3.81,9.29.62,3.42.92,6.79.92,10.1Zm-18.01.69c0-4.85-.56-8.46-1.67-10.85-1.12-2.38-3.6-3.58-7.44-3.58-3.54,0-5.91,1.23-7.1,3.69-1.19,2.46-1.79,6.04-1.79,10.73,0,5.08.58,8.77,1.73,11.08,1.15,2.31,3.46,3.46,6.93,3.46,3.85,0,6.37-1.19,7.56-3.58,1.19-2.38,1.79-6.04,1.79-10.96Z"/><path class="cls-2" d="m863.14,125.35c-.27.5-.94.75-2.02.75h-12.7c-1.69,0-2.54-.81-2.54-2.42,0-5.08.02-10.12.06-15.12.04-5,.06-10.04.06-15.12,0-3.23-.56-5.52-1.67-6.87-1.12-1.35-2.91-2.02-5.37-2.02-1.85,0-3.85.44-6,1.33-2.16.89-3.92,1.56-5.31,2.02v35.78c0,.62-.14,1.17-.4,1.67-.27.5-.94.75-2.02.75h-12.58c-1,0-1.67-.21-2.02-.63-.35-.42-.52-1.02-.52-1.79v-51.94c0-.77.17-1.39.52-1.85.35-.46,1.02-.69,2.02-.69h12.58c1.08,0,1.75.27,2.02.81.27.54.4,1.12.4,1.73v2.77c.08,0,.13.02.17.06.04.04.1.06.17.06,2.54-1.92,5.5-3.48,8.89-4.67,3.39-1.19,6.46-1.79,9.23-1.79,4.08,0,7.29.67,9.64,2.02,2.35,1.35,4.1,3.12,5.25,5.31s1.86,4.64,2.13,7.33c.27,2.69.4,5.39.4,8.08v32.78c0,.62-.14,1.17-.4,1.67Z"/><path class="cls-2" d="m908.79,52c0-.77.17-1.4.52-1.9.35-.5,1.02-.75,2.02-.75h45.82c1.62,0,2.42.84,2.42,2.52v10.43c0,.69-.17,1.26-.52,1.72-.35.46-1.02.69-2.02.69h-29.89v14.08h26.09c1.77,0,2.65.81,2.65,2.42v10.5c0,.69-.17,1.27-.52,1.73-.35.46-1.06.69-2.13.69h-26.09v16.62h30.47c1.69,0,2.54.85,2.54,2.54v10.5c0,.69-.17,1.25-.52,1.67-.35.42-1.02.63-2.02.63h-46.29c-1,0-1.67-.23-2.02-.69s-.52-1.04-.52-1.73V52Z"/><path class="cls-2" d="m1005.63,119.18c-1.54,1.39-3.19,2.58-4.96,3.58-1.77,1-3.58,1.83-5.42,2.48-1.85.65-3.66,1.11-5.42,1.38-1.77.27-3.39.4-4.85.4-3.39,0-6.14-.48-8.25-1.44-2.12-.96-3.75-2.21-4.91-3.75-1.15-1.54-1.94-3.33-2.37-5.37-.42-2.04-.63-4.17-.63-6.41-.08-3.54.4-6.54,1.44-9,1.04-2.46,2.52-4.44,4.44-5.94,1.92-1.5,4.27-2.58,7.04-3.23,2.77-.65,5.85-.98,9.23-.98h13.27v-1.85c0-1.23-.13-2.27-.4-3.12-.27-.85-.77-1.54-1.5-2.08-.73-.54-1.75-.94-3.06-1.21-1.31-.27-3.04-.4-5.19-.4-.85,0-1.9.04-3.17.12-1.27.08-2.6.16-3.98.23-1.38.08-2.77.19-4.16.35-1.38.16-2.65.27-3.81.35-1.62.16-2.67.16-3.17,0-.5-.15-.91-.81-1.21-1.96l-1.27-6c-.16-1-.02-1.83.4-2.48.42-.65,1.52-1.33,3.29-2.02,1.31-.46,2.83-.87,4.56-1.21s3.5-.63,5.31-.87c1.81-.23,3.6-.4,5.37-.52,1.77-.12,3.31-.17,4.62-.17,5.38,0,9.71.5,12.99,1.5,3.27,1,5.77,2.42,7.5,4.27s2.87,4.12,3.41,6.81c.54,2.69.81,5.77.81,9.23v18.24c0,1.23.06,2.19.17,2.89.12.69.33,1.21.63,1.56.31.35.73.6,1.27.75.54.16,1.27.27,2.19.35,1,.08,1.65.25,1.96.52.31.27.46.75.46,1.44v7.39c0,1.54-1.12,2.54-3.35,3-2.16.54-4.54.81-7.16.81-2.85,0-5.35-.48-7.5-1.44-2.16-.96-3.62-2.98-4.39-6.06l-.23-.12Zm-1.73-17.08h-10.39c-2.16,0-3.85.5-5.08,1.5-1.23,1-1.85,2.85-1.85,5.54,0,1.77.36,3,1.1,3.69.73.69,2.1,1.04,4.1,1.04,1.77,0,3.83-.42,6.18-1.27,2.35-.85,4.33-1.77,5.94-2.77v-7.73Z"/><path class="cls-2" d="m1054.22,77.16l.23.23c1-1.08,2.21-2.1,3.64-3.06,1.42-.96,2.9-1.85,4.44-2.65,1.54-.81,3.06-1.48,4.56-2.02,1.5-.54,2.87-.92,4.1-1.15,1.23-.15,2.14-.12,2.71.12.58.23.94,1.08,1.1,2.54l1.38,11.31c.08.54.12.98.12,1.33s-.12.65-.35.92c-.23.27-.58.5-1.04.69-.46.19-1.12.37-1.96.52-6.93,1.31-13.24,2.96-18.93,4.96v32.67c0,.62-.14,1.19-.4,1.73-.27.54-.94.81-2.01.81h-12.61c-1,0-1.67-.23-2.01-.69-.34-.46-.52-1.08-.52-1.85v-51.94c0-.77.17-1.38.52-1.85.34-.46,1.01-.69,2.01-.69h12.5c1.07,0,1.76.29,2.06.87s.46,1.14.46,1.67v5.54Z"/><path class="cls-2" d="m1122.09,120.91c.23.85.13,1.62-.29,2.31-.42.69-1.02,1.15-1.79,1.38-1.38.46-2.87.85-4.44,1.15-1.58.31-3.14.56-4.67.75-1.54.19-2.98.33-4.33.4-1.35.08-2.48.12-3.41.12-3.62,0-6.54-.52-8.77-1.56-2.23-1.04-3.96-2.4-5.19-4.1-1.23-1.69-2.06-3.64-2.48-5.83-.42-2.19-.63-4.48-.63-6.87v-25.74h-5.08c-.92,0-1.56-.21-1.9-.63-.35-.42-.52-1.06-.52-1.9v-8.66c0-.85.17-1.48.52-1.91.35-.42.98-.63,1.9-.63h5.19v-11.31c0-.92.23-1.6.69-2.02.46-.42,1.08-.75,1.85-.98l11.66-3.12c.85-.31,1.54-.29,2.08.06.54.35.81.98.81,1.9v15.47h11.77c1.08,0,1.75.19,2.02.58.27.39.4,1,.4,1.85v8.77c0,.85-.13,1.48-.4,1.9-.27.42-.94.63-2.02.63h-11.89l.12,21.47c0,1.08.06,2,.17,2.77.12.77.4,1.41.87,1.9.46.5,1.15.89,2.08,1.15.92.27,2.23.4,3.92.4.92,0,2.12-.04,3.58-.12,1.46-.08,2.92-.19,4.39-.35.77,0,1.39.08,1.85.23.46.15.77.88.92,2.19l1.04,8.31Z"/><path class="cls-2" d="m1180.95,123.56c0,.62-.13,1.19-.4,1.73-.27.54-.94.81-2.02.81h-12.7c-1.69,0-2.54-.85-2.54-2.54v-6.23c0-2.92.02-6.02.06-9.29.04-3.27.06-6.37.06-9.29v-6.23c0-3.15-.56-5.39-1.67-6.7-1.12-1.31-2.91-1.96-5.37-1.96-.85,0-1.79.12-2.83.35-1.04.23-2.08.52-3.12.87s-2.02.71-2.94,1.1c-.92.39-1.73.73-2.42,1.04v36.36c0,.62-.14,1.19-.4,1.73-.27.54-.94.81-2.02.81h-12.7c-.92,0-1.56-.23-1.9-.69-.35-.46-.52-1.08-.52-1.85V47.15c0-.77.17-1.38.52-1.85.35-.46.98-.69,1.9-.69h12.81c1.08,0,1.75.27,2.02.81.27.54.4,1.12.4,1.73v26.09c2.38-1.31,5.12-2.5,8.2-3.58,3.08-1.08,6.08-1.62,9-1.62,4.31,0,7.71.67,10.21,2.02,2.5,1.35,4.37,3.12,5.6,5.31,1.23,2.19,2,4.64,2.31,7.33.31,2.69.46,5.39.46,8.08v32.78Z"/></g><g><rect class="cls-3" x="13.84" y="13.27" width="220.74" height="147.16"/><g><polygon class="cls-1" points="119.51 45.34 124.17 41.94 128.83 45.34 127.05 39.84 131.78 36.44 125.95 36.44 124.17 30.88 122.38 36.45 116.55 36.44 121.28 39.84 119.51 45.34"/><polygon class="cls-1" points="95.41 51.82 100.06 48.42 104.72 51.82 102.95 46.32 107.68 42.92 101.85 42.92 100.06 37.35 98.28 42.93 92.45 42.92 97.17 46.32 95.41 51.82"/><polygon class="cls-1" points="82.43 55.03 80.64 60.6 74.81 60.6 79.54 64 77.77 69.49 82.43 66.09 87.08 69.49 85.31 64 90.04 60.6 84.21 60.6 82.43 55.03"/><polygon class="cls-1" points="75.96 90.17 80.61 93.57 78.84 88.07 83.57 84.67 77.74 84.67 75.96 79.1 74.17 84.68 68.34 84.67 73.07 88.07 71.3 93.57 75.96 90.17"/><polygon class="cls-1" points="84.21 108.82 82.43 103.25 80.64 108.82 74.81 108.82 79.54 112.22 77.77 117.71 82.43 114.31 87.08 117.71 85.31 112.22 90.04 108.82 84.21 108.82"/><polygon class="cls-1" points="101.88 126.49 100.1 120.93 98.32 126.5 92.48 126.49 97.21 129.89 95.44 135.39 100.1 131.99 104.75 135.39 102.99 129.89 107.71 126.49 101.88 126.49"/><polygon class="cls-1" points="125.96 132.89 124.17 127.32 122.39 132.9 116.56 132.89 121.29 136.29 119.52 141.79 124.17 138.39 128.83 141.79 127.06 136.29 131.79 132.89 125.96 132.89"/><polygon class="cls-1" points="150.03 126.49 148.25 120.93 146.46 126.5 140.64 126.49 145.36 129.89 143.59 135.39 148.25 131.99 152.91 135.39 151.13 129.89 155.86 126.49 150.03 126.49"/><polygon class="cls-1" points="167.71 108.82 165.92 103.25 164.13 108.82 158.31 108.82 163.04 112.22 161.26 117.71 165.92 114.31 170.58 117.71 168.8 112.22 173.53 108.82 167.71 108.82"/><polygon class="cls-1" points="179.94 84.6 174.1 84.6 172.32 79.03 170.54 84.61 164.7 84.6 169.43 88 167.66 93.5 172.32 90.1 176.97 93.5 175.21 88 179.94 84.6"/><polygon class="cls-1" points="161.26 69.42 165.92 66.02 170.58 69.42 168.8 63.92 173.53 60.53 167.71 60.53 165.92 54.96 164.13 60.54 158.31 60.53 163.04 63.92 161.26 69.42"/><polygon class="cls-1" points="148.32 37.36 146.53 42.93 140.7 42.92 145.43 46.32 143.66 51.82 148.32 48.42 152.97 51.82 151.2 46.32 155.93 42.92 150.1 42.92 148.32 37.36"/></g></g></svg>