<?xml version="1.0" encoding="UTF-8"?>
<svg version="1.1" viewBox="0 0 684 188" xmlns="http://www.w3.org/2000/svg">
    <g fill="none" fill-rule="evenodd">
        <g fill-rule="nonzero">
            <path id="Path" d="m184.5 139.62-16.8-29.78-30.12-8.84 23.2-3.4-21.7-38.46-21.81-12 21 3.5 45.83 7-68.46-55.3c-3.38-3.28-8.4-1.8-10.16 3l-17.6 67.44 24.47 4.12-27.1 6-15.14 58 45 6.38-50.76 8.13-63.46 31.83s41.71-1.89 55.9-3.87c53.74-7.53 93.22-8.29 147-16.61 9.41-1.46 45.88-25.28 45.88-25.28l-65.17-1.86z" fill="#F15A24"/>
            <path d="m390.18 92.59c0 21.627-6.1301 38.19-18.39 49.69s-29.97 17.25-53.13 17.25h-37.05v-131.37h41.08c21.333 0 37.923 5.6667 49.77 17s17.753 27.143 17.72 47.43zm-28.82 0.72c0-28.207-12.413-42.313-37.24-42.32h-14.77v85.54h11.91c26.733 0 40.1-14.407 40.1-43.22z" fill="#4D4948"/>
            <path id="a" d="m490.16 123.05c0 11.86-4.2502 21.193-12.75 28s-20.33 10.22-35.49 10.24c-14 0-26.353-2.6367-37.06-7.91v-25.83c7.2434 3.3654 14.74 6.1573 22.42 8.35 5.4656 1.5281 11.105 2.3448 16.78 2.43 6.0867 0 10.753-1.17 14-3.51s4.8933-5.8133 4.94-10.42c0.034179-2.4607-0.71915-4.8678-2.15-6.87-1.7383-2.2963-3.8757-4.2609-6.31-5.8-2.7667-1.86-8.4333-4.8267-17-8.9-8-3.7733-14-7.3967-18-10.87-3.925-3.3974-7.1633-7.5149-9.54-12.13-2.4821-5.0216-3.7105-10.57-3.58-16.17 0-11.62 3.9233-20.757 11.77-27.41s18.693-9.9867 32.54-10.001c6.5667-0.026834 13.11 0.78644 19.47 2.4207 6.6213 1.7795 13.097 4.0628 19.37 6.83l-8.95 21.66c-5.6248-2.4054-11.413-4.4104-17.32-6-4.4029-1.1202-8.9269-1.6945-13.47-1.71-5.2467 0-9.2733 1.23-12.08 3.69-2.7854 2.4011-4.3333 5.9346-4.21 9.61-0.052968 2.2578 0.53658 4.4843 1.7 6.42 1.4272 2.1198 3.2714 3.9265 5.42 5.31 2.4733 1.7 8.3367 4.77 17.59 9.21 12.233 5.8733 20.617 11.757 25.15 17.65 4.5333 5.8933 6.7867 13.13 6.7602 21.71z" fill="#4D4948"/>
            <path d="m650.13 159.53h-31.6l-17.72-69c-0.66667-2.4533-1.7867-7.53-3.36-15.23s-2.4833-12.867-2.73-15.5c-0.36 3.24-1.2533 8.4367-2.68 15.59s-2.5333 12.26-3.32 15.32l-17.63 68.83h-31.51l-33.38-131.38h27.3l16.74 71.71c2.92 13.24 5.0367 24.71 6.35 34.41 0.36-3.4067 1.18-8.69 2.46-15.85s2.49-12.717 3.63-16.67l19.06-73.6h26.26l19 73.6c0.84 3.2933 1.8867 8.3233 3.14 15.09s2.2067 12.577 2.86 17.43c0.6-4.6667 1.5567-10.49 2.87-17.47s2.5067-12.627 3.58-16.94l16.64-71.71h27.3l-33.26 131.37z" fill="#4D4948"/>
        </g>
    </g>
</svg>
