<?xml version="1.0" encoding="UTF-8"?><svg id="Layer_1" xmlns="http://www.w3.org/2000/svg" viewBox="0 0 500 103.77"><defs><style>.cls-1{fill:#ff8c3e;}.cls-1,.cls-2,.cls-3{stroke-width:0px;}.cls-2{fill:#2de2d9;}.cls-3{fill:#282828;}</style></defs><path class="cls-3" d="m141.69,36.32c0-2.01.32-3.74.97-5.16.65-1.42,1.7-2.47,3.17-3.14,1.46-.66,3.41-.9,5.85-.71v2.97c-2.55-.19-4.31.24-5.28,1.28-.97,1.05-1.45,2.63-1.45,4.76v3.54h6.9v3.08h-6.9v25.43h-3.25v-25.43h-4.33v-3.08h4.33v-3.54Z"/><path class="cls-3" d="m169.98,68.77c-2.66,0-5.05-.59-7.16-1.77-2.11-1.18-3.76-2.86-4.96-5.05-1.2-2.19-1.8-4.78-1.8-7.78s.61-5.66,1.82-7.87c1.22-2.2,2.88-3.9,4.99-5.08,2.11-1.18,4.51-1.77,7.21-1.77s5.05.59,7.16,1.77c2.11,1.18,3.77,2.86,4.99,5.05,1.22,2.19,1.82,4.78,1.82,7.78s-.62,5.66-1.85,7.87c-1.24,2.21-2.91,3.9-5.02,5.08-2.11,1.18-4.51,1.77-7.21,1.77Zm0-3.08c1.83,0,3.54-.41,5.16-1.23,1.62-.82,2.93-2.08,3.93-3.79,1.01-1.71,1.51-3.9,1.51-6.56s-.5-4.85-1.51-6.56c-1.01-1.71-2.31-2.98-3.91-3.79-1.6-.82-3.31-1.23-5.13-1.23s-3.54.41-5.13,1.23c-1.6.82-2.89,2.08-3.88,3.79-.99,1.71-1.48,3.9-1.48,6.56s.49,4.85,1.48,6.56c.99,1.71,2.27,2.98,3.85,3.79,1.58.82,3.28,1.23,5.1,1.23Z"/><path class="cls-3" d="m214.34,68.37h-3.02l-.17-5.08c-.8,1.75-1.98,3.1-3.54,4.05-1.56.95-3.5,1.43-5.82,1.43-2.13,0-4.02-.45-5.67-1.34-1.65-.89-2.94-2.26-3.85-4.11-.91-1.84-1.37-4.17-1.37-6.99v-16.48h3.19v16.2c0,3.23.71,5.66,2.14,7.27,1.43,1.62,3.45,2.42,6.07,2.42s4.84-.87,6.42-2.62c1.58-1.75,2.37-4.41,2.37-7.98v-15.28h3.25v28.51Z"/><path class="cls-3" d="m223.41,39.86h3.02l.17,5.19c.8-1.75,1.99-3.12,3.56-4.11,1.58-.99,3.51-1.48,5.79-1.48,2.13,0,4.02.47,5.67,1.4,1.65.93,2.95,2.32,3.88,4.16.93,1.84,1.4,4.19,1.4,7.04v16.31h-3.25v-15.97c0-3.23-.72-5.7-2.17-7.41-1.45-1.71-3.46-2.57-6.04-2.57-2.74,0-4.89.91-6.44,2.74-1.56,1.82-2.34,4.54-2.34,8.15v15.06h-3.25v-28.51Z"/><path class="cls-3" d="m277.93,46.47l-.29.12v-19.28h3.25v41.06h-3.02l-.23-6.27c-.8,1.86-2.12,3.44-3.96,4.73s-4.13,1.94-6.87,1.94-4.92-.6-6.9-1.8c-1.98-1.2-3.51-2.9-4.59-5.1-1.08-2.2-1.62-4.79-1.62-7.76s.54-5.54,1.62-7.73c1.08-2.19,2.61-3.89,4.59-5.1,1.98-1.22,4.28-1.83,6.9-1.83,2.89,0,5.27.68,7.13,2.03s3.19,3.01,3.99,4.99Zm-20.76,7.64c0,3.57.92,6.41,2.77,8.5,1.84,2.09,4.34,3.14,7.5,3.14,1.98,0,3.73-.48,5.28-1.43,1.54-.95,2.75-2.29,3.62-4.02.87-1.73,1.31-3.79,1.31-6.19s-.44-4.46-1.31-6.19c-.88-1.73-2.08-3.07-3.62-4.02-1.54-.95-3.3-1.42-5.28-1.42-3.16,0-5.66,1.05-7.5,3.14-1.84,2.09-2.77,4.92-2.77,8.5Z"/><path class="cls-3" d="m292.41,33.47c-.72,0-1.31-.23-1.77-.69s-.68-1.03-.68-1.71c0-.72.23-1.31.68-1.77s1.05-.68,1.77-.68c.65,0,1.21.23,1.68.68.47.46.71,1.05.71,1.77,0,.68-.24,1.25-.71,1.71-.48.46-1.04.69-1.68.69Zm-1.65,6.39h3.19v28.51h-3.19v-28.51Z"/><path class="cls-3" d="m303.87,39.86h3.02l.17,5.19c.8-1.75,1.99-3.12,3.56-4.11,1.58-.99,3.51-1.48,5.79-1.48,2.13,0,4.02.47,5.67,1.4,1.65.93,2.95,2.32,3.88,4.16.93,1.84,1.4,4.19,1.4,7.04v16.31h-3.25v-15.97c0-3.23-.72-5.7-2.17-7.41-1.45-1.71-3.46-2.57-6.04-2.57-2.74,0-4.89.91-6.44,2.74-1.56,1.82-2.34,4.54-2.34,8.15v15.06h-3.25v-28.51Z"/><path class="cls-3" d="m358.45,39.86h3.19v22.81c0,2.39-.32,4.62-.97,6.67-.65,2.05-1.62,3.85-2.94,5.39-1.31,1.54-2.92,2.75-4.82,3.62-1.9.87-4.11,1.34-6.62,1.4s-5.3-.37-8.38-1.28l.86-2.91c3.12.91,5.88,1.25,8.3,1,2.41-.25,4.45-.98,6.1-2.2,1.65-1.22,2.9-2.82,3.73-4.82.84-2,1.25-4.29,1.25-6.87v-1.03h.34c-.84,1.94-2.21,3.6-4.11,4.99-1.9,1.39-4.28,2.1-7.13,2.14-2.66,0-4.98-.6-6.96-1.8-1.98-1.2-3.5-2.89-4.56-5.08-1.06-2.19-1.6-4.78-1.6-7.78s.53-5.6,1.6-7.78c1.06-2.19,2.58-3.88,4.56-5.08,1.98-1.2,4.3-1.8,6.96-1.8s5.08.64,6.93,1.91c1.84,1.27,3.2,2.82,4.08,4.65l.17-6.16Zm-20.82,14.26c0,2.47.43,4.57,1.28,6.3.86,1.73,2.05,3.05,3.59,3.96,1.54.91,3.35,1.37,5.45,1.37,1.98,0,3.74-.47,5.28-1.4,1.54-.93,2.75-2.27,3.62-4.02.87-1.75,1.31-3.82,1.31-6.22s-.44-4.46-1.31-6.19c-.87-1.73-2.08-3.07-3.62-4.02-1.54-.95-3.3-1.42-5.28-1.42-2.09,0-3.91.46-5.45,1.4-1.54.93-2.74,2.25-3.59,3.96-.86,1.71-1.28,3.8-1.28,6.27Z"/><path class="cls-3" d="m402.43,40.88c-1.41-2.51-3.14-4.31-5.19-5.42-2.05-1.1-4.24-1.65-6.56-1.65-2.51,0-4.8.62-6.87,1.85-2.07,1.24-3.71,2.95-4.9,5.13s-1.8,4.72-1.8,7.61.59,5.43,1.77,7.61c1.18,2.19,2.78,3.9,4.82,5.13,2.03,1.24,4.31,1.85,6.81,1.85,1.79,0,3.46-.3,5.02-.91,1.56-.61,2.93-1.46,4.11-2.54,1.18-1.08,2.11-2.33,2.79-3.74v-3.99h-11.46v-5.53h18.25v9.92c-.91,2.36-2.27,4.49-4.08,6.39-1.81,1.9-3.95,3.4-6.44,4.51-2.49,1.1-5.24,1.65-8.24,1.65-2.81,0-5.45-.49-7.9-1.48-2.45-.99-4.6-2.39-6.44-4.19-1.84-1.8-3.29-3.95-4.33-6.44-1.05-2.49-1.57-5.24-1.57-8.24s.52-5.69,1.57-8.18c1.05-2.49,2.49-4.65,4.33-6.47,1.84-1.82,3.99-3.23,6.44-4.22,2.45-.99,5.08-1.48,7.9-1.48,2.55,0,5,.41,7.36,1.23,2.36.82,4.47,2.02,6.33,3.62,1.86,1.6,3.29,3.56,4.28,5.87l-5.99,2.11Z"/><path class="cls-3" d="m415.94,28.45h6.79v39.92h-6.79V28.45Z"/><path class="cls-3" d="m445.37,28.45c4.3,0,8.01.82,11.15,2.45,3.14,1.64,5.57,3.96,7.3,6.99,1.73,3.02,2.59,6.59,2.59,10.69s-.87,7.58-2.59,10.55c-1.73,2.97-4.16,5.25-7.3,6.84-3.14,1.6-6.85,2.4-11.15,2.4h-14.26V28.45h14.26Zm0,34.27c4.56,0,8.07-1.25,10.52-3.74,2.45-2.49,3.68-5.96,3.68-10.41s-1.23-8.02-3.68-10.61c-2.45-2.59-5.96-3.88-10.52-3.88h-7.47v28.63h7.47Z"/><path class="cls-3" d="m500,34.1h-20.47v11.23h15.34v5.65h-15.34v11.75h20.47v5.65h-27.26V28.45h27.26v5.65Z"/><path class="cls-1" d="m44.31,54.83c-.53-1.64-1.77-2.88-3.41-3.41l-23.04-7.49h0c-1.07-.35-2.21-.35-3.28,0l-10.91,3.54c-2.23.72-3.67,2.71-3.67,5.05s1.44,4.32,3.67,5.05l12.85,4.17c.76.25,1.34.83,1.59,1.59.25.77.12,1.58-.35,2.23l-7.94,10.93c-1.38,1.9-1.38,4.35,0,6.24,1.03,1.42,2.59,2.2,4.25,2.2.56,0,1.12-.09,1.68-.27l10.91-3.55c1.07-.35,1.99-1.02,2.65-1.93l14.24-19.6c1.01-1.39,1.28-3.13.75-4.76Z"/><path class="cls-2" d="m94.43,84.94c-.56,0-1.12-.09-1.68-.27l-10.91-3.54c-1.07-.35-1.99-1.01-2.65-1.93l-14.24-19.6c-1.01-1.39-1.28-3.13-.75-4.76.53-1.63,1.77-2.88,3.41-3.41l23.04-7.49c1.07-.35,2.21-.35,3.28,0l10.91,3.54c2.23.72,3.67,2.71,3.67,5.05s-1.44,4.32-3.67,5.05l-12.85,4.17c-.76.25-1.35.83-1.59,1.59-.25.76-.12,1.57.35,2.22l7.94,10.93c1.38,1.9,1.38,4.34,0,6.24-1.03,1.42-2.59,2.2-4.25,2.2Zm-2.15-38.44c-.26,0-.51.04-.77.12l-23.05,7.49c-.76.25-1.34.83-1.59,1.59-.25.76-.12,1.57.35,2.22l14.24,19.6c.31.43.74.74,1.24.9l10.91,3.54c1.27.41,2.26-.2,2.78-.9.51-.71.78-1.84,0-2.92l-7.94-10.93c-1.01-1.39-1.28-3.13-.75-4.76.53-1.64,1.77-2.88,3.41-3.41l12.85-4.17c1.26-.41,1.71-1.49,1.71-2.36s-.45-1.95-1.71-2.36l-10.91-3.54c-.25-.08-.51-.12-.77-.12Z"/><path class="cls-2" d="m40.05,103.77c-.56,0-1.12-.09-1.68-.27-2.23-.72-3.67-2.71-3.67-5.05v-11.47c0-1.13.35-2.21,1.01-3.12l14.24-19.6c1.01-1.39,2.58-2.19,4.3-2.19h0c1.72,0,3.28.8,4.29,2.19l14.24,19.6c.66.91,1.01,1.99,1.01,3.12v11.47c0,2.34-1.44,4.32-3.67,5.05-2.23.72-4.56-.03-5.94-1.93l-7.94-10.93c-.47-.65-1.2-1.02-2.01-1.02h0c-.8,0-1.54.37-2.01,1.02l-7.94,10.93c-1.03,1.42-2.59,2.2-4.25,2.2Zm-2.05-18.25h0c-.31.43-.47.93-.47,1.46v11.47c0,1.33.89,2.09,1.71,2.36.83.27,1.99.17,2.77-.9l7.94-10.93c1.01-1.39,2.58-2.19,4.29-2.19h0c1.72,0,3.28.8,4.29,2.19l7.94,10.93c.78,1.07,1.95,1.17,2.78.9.83-.27,1.71-1.03,1.71-2.36v-11.47c0-.53-.16-1.03-.47-1.46l-14.24-19.6c-.47-.65-1.2-1.02-2.01-1.02h0c-.8,0-1.54.37-2.01,1.02l-14.24,19.6Z"/><path class="cls-2" d="m45.01,44.17c-.55,0-1.11-.09-1.66-.26l-23.04-7.49c-1.07-.35-1.99-1.02-2.65-1.93l-6.74-9.28c-1.38-1.9-1.38-4.35,0-6.24,1.38-1.9,3.71-2.65,5.94-1.93l12.85,4.17c.76.25,1.58.12,2.23-.35.65-.47,1.02-1.2,1.02-2.01V5.35c0-2.34,1.44-4.32,3.67-5.05,2.23-.72,4.56.03,5.94,1.93l6.74,9.28c.66.91,1.01,1.99,1.01,3.12v24.23c0,1.72-.8,3.29-2.19,4.3-.93.67-2,1.02-3.1,1.02ZM15.16,19.6c-.88,0-1.57.49-1.96,1.03-.51.71-.78,1.84,0,2.92l6.74,9.28c.31.43.74.74,1.24.9l23.04,7.49c.76.25,1.58.12,2.23-.35.65-.47,1.02-1.2,1.02-2.01V14.63c0-.53-.16-1.03-.47-1.46l-6.74-9.28c-.78-1.08-1.94-1.17-2.78-.9-.83.27-1.71,1.03-1.71,2.36v13.51c0,1.72-.8,3.28-2.19,4.29-1.39,1.01-3.13,1.29-4.76.76l-12.85-4.17c-.28-.09-.56-.13-.81-.13Z"/><path class="cls-2" d="m63.55,44.14c-1.1,0-2.18-.35-3.1-1.02-1.39-1.01-2.19-2.58-2.19-4.3V14.6c0-1.13.35-2.21,1.01-3.12l6.74-9.28c1.38-1.9,3.71-2.65,5.93-1.93,2.23.72,3.67,2.71,3.67,5.05v13.51c0,.8.37,1.54,1.02,2.01.65.47,1.46.6,2.23.35l12.85-4.17c2.23-.72,4.56.03,5.94,1.93,1.38,1.9,1.38,4.34,0,6.24l-6.74,9.28c-.66.91-1.58,1.58-2.65,1.93l-23.04,7.49c-.55.18-1.1.26-1.66.26Zm6.72-41.31c-.68,0-1.42.27-1.97,1.03l-6.74,9.28c-.31.43-.47.93-.47,1.46v24.23c0,.8.37,1.54,1.02,2.01.65.47,1.46.6,2.23.35l23.04-7.49c.5-.16.93-.47,1.24-.9l6.74-9.28c.78-1.08.51-2.21,0-2.92-.51-.7-1.51-1.31-2.78-.9l-12.85,4.17c-1.63.53-3.37.26-4.76-.75-1.39-1.01-2.19-2.58-2.19-4.3V5.32c0-1.33-.89-2.09-1.72-2.36-.24-.08-.52-.13-.8-.13Z"/></svg>