<?xml version="1.0" encoding="UTF-8" standalone="no"?>
<svg
   xmlns:dc="http://purl.org/dc/elements/1.1/"
   xmlns:cc="http://creativecommons.org/ns#"
   xmlns:rdf="http://www.w3.org/1999/02/22-rdf-syntax-ns#"
   xmlns:svg="http://www.w3.org/2000/svg"
   xmlns="http://www.w3.org/2000/svg"
   id="svg4953"
   version="1.1"
   viewBox="0 0 171.86587 51.624626"
   height="195.1167"
   width="649.57178">
  <title
     id="title1233">Workflow RO-Crate logo</title>
  <defs
     id="defs4947" />
  <metadata
     id="metadata4950">
    <rdf:RDF>
      <cc:Work
         rdf:about="">
        <dc:format>image/svg+xml</dc:format>
        <dc:type
           rdf:resource="http://purl.org/dc/dcmitype/StillImage" />
        <dc:title>Workflow RO-Crate logo</dc:title>
        <cc:license
           rdf:resource="https://www.apache.org/licenses/LICENSE-2.0" />
        <dc:date>2020-03-17</dc:date>
        <dc:creator>
          <cc:Agent>
            <dc:title>Stian Soiland-Reyes</dc:title>
          </cc:Agent>
        </dc:creator>
        <dc:contributor>
          <cc:Agent>
            <dc:title />
          </cc:Agent>
        </dc:contributor>
        <dc:publisher>
          <cc:Agent>
            <dc:title />
          </cc:Agent>
        </dc:publisher>
        <dc:rights>
          <cc:Agent>
            <dc:title>The University of Manchester</dc:title>
          </cc:Agent>
        </dc:rights>
        <dc:source>https://github.com/ResearchObject/ro-crate/blob/master/docs/assets/img/ro-crate.svg</dc:source>
        <dc:description />
      </cc:Work>
    </rdf:RDF>
  </metadata>
  <g
     transform="translate(1839.5733,-147.78)"
     id="layer1">
    <g
       id="g1075">
      <g
         style="fill:#39989f;fill-opacity:1"
         id="g1052">
        <g
           id="text838-7-1-2"
           style="font-style:normal;font-variant:normal;font-weight:900;font-stretch:normal;font-size:9.63359547px;line-height:1.25;font-family:'Helvetica Now Display';-inkscape-font-specification:'Helvetica Now Display, Heavy';font-variant-ligatures:normal;font-variant-caps:normal;font-variant-numeric:normal;font-feature-settings:normal;text-align:start;letter-spacing:0px;word-spacing:0px;writing-mode:lr-tb;text-anchor:start;opacity:1;fill:#39989f;fill-opacity:1;stroke:none;stroke-width:0.24083988"
           transform="scale(0.91026101,1.098586)"
           aria-label="  RO-Crate">
          <path
             id="path1023"
             style="font-style:normal;font-variant:normal;font-weight:900;font-stretch:normal;font-size:23.12063408px;font-family:'Helvetica Now Display';-inkscape-font-specification:'Helvetica Now Display, Heavy';font-variant-ligatures:normal;font-variant-caps:normal;font-variant-numeric:normal;font-feature-settings:normal;text-align:start;writing-mode:lr-tb;text-anchor:start;fill:#39989f;fill-opacity:1;stroke-width:0.24083988"
             d="m -1925.9698,174.00593 -0.092,-2.19646 c -0.069,-1.75717 -0.3468,-3.14441 -2.2658,-3.86115 1.7571,-0.7861 2.5664,-2.26582 2.5664,-3.86114 0,-2.56639 -1.6416,-4.87846 -6.127,-4.87846 h -8.0922 v 16.46189 h 4.6241 v -5.68767 h 2.4045 c 1.2948,0 2.1734,0.27745 2.2427,2.15022 l 0.069,1.87277 c 0.023,0.71674 0.1156,1.22539 0.3237,1.66468 h 4.7628 c -0.2312,-0.39305 -0.393,-0.97106 -0.4161,-1.66468 z m -9.387,-7.3986 v -3.79179 h 2.7745 c 1.3641,0 2.0577,0.71674 2.0577,1.89589 0,1.20228 -0.6936,1.8959 -2.0577,1.8959 z" />
          <path
             id="path1025"
             style="font-style:normal;font-variant:normal;font-weight:900;font-stretch:normal;font-size:23.12063408px;font-family:'Helvetica Now Display';-inkscape-font-specification:'Helvetica Now Display, Heavy';font-variant-ligatures:normal;font-variant-caps:normal;font-variant-numeric:normal;font-feature-settings:normal;text-align:start;writing-mode:lr-tb;text-anchor:start;fill:#39989f;fill-opacity:1;stroke-width:0.24083988"
             d="m -1916.0973,176.04054 c 5.1096,0 8.6471,-3.35249 8.6471,-8.60087 0,-5.24839 -3.5375,-8.60088 -8.6471,-8.60088 -5.1328,0 -8.6472,3.35249 -8.6472,8.60088 0,5.24838 3.5144,8.60087 8.6472,8.60087 z m 0,-3.99987 c -2.3121,0 -3.8381,-1.66468 -3.8381,-4.601 0,-2.9132 1.526,-4.60101 3.8381,-4.60101 2.312,0 3.838,1.68781 3.838,4.60101 0,2.93632 -1.526,4.601 -3.838,4.601 z" />
          <path
             id="path1027"
             style="font-style:normal;font-variant:normal;font-weight:900;font-stretch:normal;font-size:23.12063408px;font-family:'Helvetica Now Display';-inkscape-font-specification:'Helvetica Now Display, Heavy';font-variant-ligatures:normal;font-variant-caps:normal;font-variant-numeric:normal;font-feature-settings:normal;text-align:start;writing-mode:lr-tb;text-anchor:start;fill:#39989f;fill-opacity:1;stroke-width:0.24083988"
             d="m -1906.1787,170.97713 h 7.0981 v -3.53746 h -7.0981 z" />
          <path
             id="path1029"
             style="font-style:normal;font-variant:normal;font-weight:900;font-stretch:normal;font-size:23.12063408px;font-family:'Helvetica Now Display';-inkscape-font-specification:'Helvetica Now Display, Heavy';font-variant-ligatures:normal;font-variant-caps:normal;font-variant-numeric:normal;font-feature-settings:normal;text-align:start;writing-mode:lr-tb;text-anchor:start;fill:#39989f;fill-opacity:1;stroke-width:0.24083988"
             d="m -1889.37,176.04054 c 4.2542,0 7.5604,-2.40454 8.0922,-6.82058 h -4.6241 c -0.3469,1.84965 -1.6878,2.86696 -3.4681,2.86696 -2.4277,0 -3.63,-1.73405 -3.63,-4.64725 0,-2.89008 1.2023,-4.64725 3.63,-4.64725 1.6878,0 2.9594,0.90171 3.3987,2.54327 h 4.6704 c -0.6012,-4.16171 -3.9074,-6.4969 -8.0691,-6.4969 -5.2715,0 -8.4391,3.32937 -8.4391,8.60088 0,5.2715 3.3525,8.60087 8.4391,8.60087 z" />
          <path
             id="path1031"
             style="font-style:normal;font-variant:normal;font-weight:900;font-stretch:normal;font-size:23.12063408px;font-family:'Helvetica Now Display';-inkscape-font-specification:'Helvetica Now Display, Heavy';font-variant-ligatures:normal;font-variant-caps:normal;font-variant-numeric:normal;font-feature-settings:normal;text-align:start;writing-mode:lr-tb;text-anchor:start;fill:#39989f;fill-opacity:1;stroke-width:0.24083988"
             d="m -1872.5151,163.5554 c -1.7341,0 -2.7976,0.85546 -3.2138,2.54327 v -2.3583 h -4.1617 v 11.93024 h 4.2542 v -5.08654 c 0,-2.21958 0.9942,-3.1444 2.867,-3.1444 h 1.1097 v -3.81491 c -0.2543,-0.0462 -0.5317,-0.0694 -0.8554,-0.0694 z" />
          <path
             id="path1033"
             style="font-style:normal;font-variant:normal;font-weight:900;font-stretch:normal;font-size:23.12063408px;font-family:'Helvetica Now Display';-inkscape-font-specification:'Helvetica Now Display, Heavy';font-variant-ligatures:normal;font-variant-caps:normal;font-variant-numeric:normal;font-feature-settings:normal;text-align:start;writing-mode:lr-tb;text-anchor:start;fill:#39989f;fill-opacity:1;stroke-width:0.24083988"
             d="m -1858.6659,175.67061 c -0.3237,-0.43929 -0.4856,-1.22539 -0.4856,-2.15022 v -6.31193 c 0,-2.3583 -1.734,-3.74554 -5.6183,-3.74554 -3.9998,0 -5.8264,1.43348 -6.0345,4.20795 h 4.208 c 0.1156,-1.0173 0.6011,-1.27163 1.7803,-1.27163 1.2254,0 1.5028,0.41617 1.5028,0.94795 0,0.64737 -0.4624,0.9017 -1.4335,0.99418 l -1.919,0.16185 c -3.4912,0.30057 -4.7628,1.59532 -4.7628,3.72242 0,2.42767 1.919,3.72242 4.3929,3.72242 1.7803,0 3.0519,-0.57801 3.7918,-1.50284 0.023,0.46241 0.1618,0.92483 0.3006,1.22539 z m -6.9131,-2.45078 c -0.9479,0 -1.526,-0.4393 -1.526,-1.15604 0,-0.71673 0.4625,-1.08666 1.3642,-1.17915 l 1.3641,-0.13872 c 0.5317,-0.0694 0.8554,-0.18497 1.0635,-0.46241 v 0.69362 c 0,1.6878 -1.0173,2.2427 -2.2658,2.2427 z" />
          <path
             id="path1035"
             style="font-style:normal;font-variant:normal;font-weight:900;font-stretch:normal;font-size:23.12063408px;font-family:'Helvetica Now Display';-inkscape-font-specification:'Helvetica Now Display, Heavy';font-variant-ligatures:normal;font-variant-caps:normal;font-variant-numeric:normal;font-feature-settings:normal;text-align:start;writing-mode:lr-tb;text-anchor:start;fill:#39989f;fill-opacity:1;stroke-width:0.24083988"
             d="m -1850.25,166.74605 v -3.00568 h -2.2427 v -3.60682 h -4.2542 v 3.60682 h -1.6878 v 3.00568 h 1.6878 v 5.2715 c 0,2.65888 1.3178,3.76867 4.6935,3.76867 0.6011,0 1.2254,-0.0462 1.8034,-0.11561 v -3.09816 h -0.8786 c -0.8555,0 -1.3641,-0.0694 -1.3641,-1.06355 v -4.76285 z" />
          <path
             id="path1037"
             style="font-style:normal;font-variant:normal;font-weight:900;font-stretch:normal;font-size:23.12063408px;font-family:'Helvetica Now Display';-inkscape-font-specification:'Helvetica Now Display, Heavy';font-variant-ligatures:normal;font-variant-caps:normal;font-variant-numeric:normal;font-feature-settings:normal;text-align:start;writing-mode:lr-tb;text-anchor:start;fill:#39989f;fill-opacity:1;stroke-width:0.24083988"
             d="m -1836.7707,170.1679 c 0,-4.23107 -2.6127,-6.70498 -6.4044,-6.70498 -3.8612,0 -6.3813,2.47391 -6.3813,6.24257 0,3.76866 2.5664,6.24257 6.4275,6.24257 2.8901,0 5.4102,-1.43348 6.0807,-4.04611 h -3.9767 c -0.4162,0.69362 -1.1098,1.04043 -2.104,1.04043 -1.1792,0 -2.104,-0.64738 -2.3814,-2.0115 h 8.7396 z m -6.4507,-3.6993 c 1.2254,0 2.0809,0.64738 2.3583,1.94213 h -4.6472 c 0.2774,-1.38723 1.156,-1.94213 2.2889,-1.94213 z" />
        </g>
        <text
           transform="scale(0.91026101,1.098586)"
           id="text838-7-1"
           y="146.76982"
           x="-1941.137"
           style="font-style:normal;font-variant:normal;font-weight:900;font-stretch:normal;font-size:9.63359547px;line-height:1.25;font-family:'Helvetica Now Display';-inkscape-font-specification:'Helvetica Now Display, Heavy';font-variant-ligatures:normal;font-variant-caps:normal;font-variant-numeric:normal;font-feature-settings:normal;text-align:start;letter-spacing:0px;word-spacing:0px;writing-mode:lr-tb;text-anchor:start;opacity:0;fill:#39989f;fill-opacity:1;stroke:none;stroke-width:0.24083988"
           xml:space="preserve"><tspan
             style="font-style:normal;font-variant:normal;font-weight:900;font-stretch:normal;font-size:23.12063217px;font-family:'Helvetica Now Display';-inkscape-font-specification:'Helvetica Now Display, Heavy';font-variant-ligatures:normal;font-variant-caps:normal;font-variant-numeric:normal;font-feature-settings:normal;text-align:start;writing-mode:lr-tb;text-anchor:start;fill:#39989f;fill-opacity:1;stroke-width:0.24083988"
             y="146.76982"
             x="-1941.137"
             id="tspan836-4-9"> </tspan><tspan
             id="tspan840-1-6"
             style="font-style:normal;font-variant:normal;font-weight:900;font-stretch:normal;font-size:23.12063217px;font-family:'Helvetica Now Display';-inkscape-font-specification:'Helvetica Now Display, Heavy';font-variant-ligatures:normal;font-variant-caps:normal;font-variant-numeric:normal;font-feature-settings:normal;text-align:start;writing-mode:lr-tb;text-anchor:start;fill:#39989f;fill-opacity:1;stroke-width:0.24083988"
             y="175.67061"
             x="-1941.137">RO-Crate</tspan></text>
      </g>
      <g
         id="g984"
         transform="matrix(0.18392081,0,0,0.18392081,-1674.579,149.62859)">
        <g
           transform="matrix(0.3527778,0,0,-0.3527778,-1077.9314,500.99027)"
           id="g4934">
          <path
             style="fill:#4d4e4c;stroke-width:0.72635132"
             d="m 1009.5861,758.84575 c -73.77092,5.79298 -139.82992,36.6562 -190.13312,88.83146 -45.55611,47.25155 -72.44251,103.88267 -80.89181,170.38339 -1.7947,14.1259 -1.776,50.752 0.033,65.3717 7.092,57.3001 27.9142,107.1191 63.2971,151.4442 9.7069,12.1602 31.93121,34.4529 43.53901,43.6732 16.1975,12.8659 34.5766,24.9525 48.9491,32.1904 5.7483,2.8948 5.8474,3.0431 7.6988,11.516 1.9271,8.8198 6.6938,14.0908 14.1979,15.7001 8.0454,1.7255 11.6524,-0.361 35.5594,-20.5693 15.4315,-13.0441 21.4586,-18.8889 23.2113,-22.5096 1.9091,-3.9435 1.9697,-10.5759 0.1336,-14.6038 -2.7225,-5.9723 -4.4675,-7.2448 -16.2898,-11.8791 -13.6921,-5.3672 -37.1306,-13.634 -43.1459,-15.2175 -10.38,-2.7325 -19.2983,2.6042 -22.446,13.4318 -0.617,2.1225 -1.3637,3.859 -1.6593,3.859 -0.9137,0 -13.3505,-8.7316 -22.742,-15.9667 -10.5161,-8.1015 -31.9389,-29.1893 -40.2389,-39.6097 -23.77231,-29.8452 -40.40681,-62.4117 -49.71001,-97.3205 -12.0025,-45.038 -11.4645,-94.3992 1.5125,-138.77773 17.8819,-61.15226 57.51971,-113.34859 112.36961,-147.97183 9.4688,-5.97705 30.4379,-16.56633 40.8514,-20.6297 31.2286,-12.1855 62.7872,-18.3504 94.06252,-18.37492 41.2595,-0.0323 77.6261,8.1956 114.3892,25.88056 69.0461,33.21471 119.6713,95.1925 138.7437,169.85669 4.8973,19.17153 7.0949,35.01393 7.7585,55.92903 1.4469,45.6048 -10.0539,91.7303 -33.1426,132.9223 -29.3907,52.4354 -75.838,94.5069 -129.8945,117.6572 -13.0257,5.5784 -30.6302,11.6116 -31.4249,10.7695 -0.5643,-0.5979 -1.3798,-11.8812 -3.0348,-41.9909 -1.2863,-23.4009 -1.241,-85.8381 0.068,-94.4256 3.4369,-22.5401 11.3942,-36.8386 49.113,-88.2517 20.4213,-27.8355 30.6087,-42.5001 37.9236,-54.5901 11.2422,-18.5812 19.3978,-37.31833 22.3481,-51.34383 1.552,-7.37787 1.5181,-25.36208 -0.058,-30.66873 -9.0457,-30.46041 -47.6066,-51.62537 -111.05,-60.95228 -21.7794,-3.20182 -33.7591,-3.95684 -63.1926,-3.98271 -36.25312,-0.0319 -55.79172,1.65788 -83.53042,7.2239 -56.6931,11.37602 -88.9927,33.34453 -93.3765,63.50987 -3.7154,25.56565 8.1694,56.20058 38.6746,99.68968 4.6117,6.5745 15.2004,21.2493 23.5305,32.6107 38.7405,52.8383 45.6816,66.2127 50.1136,96.5609 1.2526,8.5774 1.2487,9.7063 -0.1586,45.8406 -0.2584,6.6359 -0.2513,12.9361 0.016,14.0006 0.6687,2.6642 5.1899,7.4976 8.7524,9.3568 8.8319,4.6092 20.8611,-1.2871 22.85,-11.2002 1.5229,-7.5905 2.4938,-23.743 2.4819,-41.2917 -0.011,-15.9229 -0.21,-18.904 -1.8942,-28.3277 -5.8708,-32.8508 -14.6242,-49.4289 -55.8022,-105.6841 -39.7723,-54.335 -50.4182,-72.37653 -54.782,-92.83894 -3.6362,-17.05108 1.1516,-25.20056 20.5545,-34.98606 26.7821,-13.50706 63.7008,-20.38579 113.91392,-21.22455 31.4776,-0.52581 51.7713,0.87027 77.2828,5.31656 31.9414,5.56692 59.6229,16.55286 68.6047,27.22706 4.3513,5.17122 4.9725,7.41723 4.5882,16.58794 -0.4242,10.12391 -2.6131,17.40256 -9.1516,30.43046 -8.0366,16.01313 -18.5126,31.95563 -42.3199,64.40303 -50.4034,68.696 -57.0388,82.3895 -59.4326,122.6524 -1.4071,23.6669 -0.8126,59.8108 1.7638,107.2378 1.5726,28.9505 2.4912,41.3148 3.3544,45.1513 0.9426,4.1897 4.9394,9.0342 8.9601,10.8605 4.4383,2.0159 9.3564,1.67 21.9533,-1.5438 65.9048,-16.8144 123.3276,-54.5201 165.6397,-108.7647 30.1612,-38.6669 51.0136,-85.3945 59.3719,-133.045 2.9231,-16.6645 3.5039,-26.767 3.1047,-54.0023 -0.3861,-26.3429 -0.6585,-29.1574 -4.9534,-51.17483 -9.0122,-46.20079 -30.4013,-91.08666 -61.2476,-128.53048 -8.8289,-10.71714 -30.8544,-32.51512 -41.4632,-41.03463 -43.9908,-35.32762 -94.3309,-56.52082 -150.7179,-63.45229 -9.3601,-1.15061 -44.5476,-2.03323 -53.3868,-1.33912 z"
             id="path285-1-0" />
          <path
             id="path287-8-3"
             transform="matrix(0.74999998,0,0,-0.74999998,6.75977,147.06053)"
             d="m 1341.8223,-1190.1484 c -23.665,-0.08 -34.2157,1.2458 -52.8145,6.6328 -38.0668,11.0254 -59.5558,33.3312 -61.2207,63.5468 -0.4864,8.8277 -0.352,9.7808 2.082,14.7559 8.2931,16.9504 39.7859,30.5492 81.9297,35.3789 5.0602,0.5799 10.7275,1.2289 12.5918,1.4414 1.8643,0.213 17.7701,0.2447 35.3477,0.072 33.5646,-0.3293 45.7223,-1.4557 67.0527,-6.2168 28.4905,-6.3592 48.9575,-16.8695 55.1328,-28.3106 2.3946,-4.4364 2.1885,-14.9471 -0.4629,-23.6757 -9.2566,-30.4759 -52.4051,-55.2515 -108.6484,-62.3848 -5.0603,-0.6419 -19.0054,-1.2002 -30.9902,-1.2402 z"
             style="fill:#39989f;stroke-width:0.96846849" />
        </g>
        <g
           id="text13"
           style="font-style:normal;font-weight:normal;font-size:70.52535248px;line-height:1.25;font-family:sans-serif;letter-spacing:0px;word-spacing:0px;fill:#916f6f;fill-opacity:1;stroke:none;stroke-width:1.76313376"
           aria-label="{">
          <path
             id="path3720"
             style="font-style:normal;font-variant:normal;font-weight:normal;font-stretch:normal;font-size:338.521698px;font-family:Inconsolata;-inkscape-font-specification:Inconsolata;fill:#916f6f;stroke-width:1.76313376"
             d="m -891.33986,115.23347 v 18.95722 h 7.10895 c 5.75487,0 14.55643,-0.33853 21.32687,6.77043 6.77043,6.43191 8.80156,16.24904 8.80156,30.80547 0,10.49418 -1.01556,20.64983 -1.01556,33.85217 0,12.18678 1.01556,35.54478 18.61869,49.08565 14.89495,11.17122 32.15956,10.15565 53.14791,10.15565 h 12.18678 v -18.95721 h -12.5253 c -13.87939,0 -24.71209,0.67704 -33.85217,-5.75487 -12.18679,-8.12452 -13.87939,-23.01948 -13.87939,-34.52922 0,-9.14008 1.01556,-17.94165 1.01556,-28.43582 0,-35.54478 -15.572,-48.4086 -28.43582,-52.80938 10.49417,-4.40079 18.95721,-12.52531 24.03504,-22.68096 4.40078,-9.140084 5.41635,-19.295735 5.41635,-27.081734 0,-8.463042 -1.01557,-15.91052 -1.01557,-24.03504 0,-6.770434 0.67704,-23.357998 13.54087,-31.482518 9.14008,-5.754869 19.29574,-4.062261 34.19069,-4.062261 h 11.84826 V -4.2646895 h -10.49417 c -17.94165,0 -39.60704,-1.3540867 -55.85608,13.540868 -14.89496,13.5408675 -16.92609,32.4980825 -16.92609,45.3619075 0,8.124521 1.01557,15.91052 1.01557,24.035041 0,8.463042 -1.01557,20.311301 -8.80157,28.774343 -7.44747,7.786 -16.58756,7.786 -22.68095,7.786 z" />
        </g>
        <g
           id="text13-3"
           style="font-style:normal;font-weight:normal;font-size:70.52535248px;line-height:1.25;font-family:sans-serif;letter-spacing:0px;word-spacing:0px;fill:#916f6f;fill-opacity:1;stroke:none;stroke-width:1.76313376"
           aria-label="}">
          <path
             id="path3723"
             style="font-style:normal;font-variant:normal;font-weight:normal;font-stretch:normal;font-size:338.52172852px;font-family:Inconsolata;-inkscape-font-specification:Inconsolata;fill:#916f6f;stroke-width:1.76313376"
             d="m -538.26184,115.23348 h -6.43191 c -6.0934,0 -15.572,0 -22.68096,-7.786 -8.12452,-8.463046 -8.80157,-20.311307 -8.80157,-28.77435 0,-8.124522 0.67705,-15.910521 0.67705,-24.035043 0,-12.863826 -1.69261,-31.821042 -16.58757,-45.3619115 -16.24904,-14.894956 -37.91443,-13.5408691 -56.1946,-13.5408691 h -10.15566 V 15.031045 h 11.50974 c 14.89496,0 25.38913,-1.692609 34.1907,4.062261 13.20235,8.124521 13.87939,24.712086 13.87939,31.48252 0,8.124522 -1.01557,15.572 -1.01557,24.035043 0,7.786 0.67705,17.941652 5.07783,27.081741 5.07783,10.15565 13.87939,18.28017 24.37356,22.68095 -12.86382,4.40079 -28.77434,17.26461 -28.77434,52.80939 0,10.49418 1.01556,19.29574 1.01556,28.43583 0,11.50974 -1.69261,26.40469 -13.87939,34.52921 -9.14009,6.43192 -19.63426,5.75487 -33.51365,5.75487 h -12.5253 v 18.95722 h 12.18678 c 20.98835,0 38.25295,1.01557 52.80939,-10.15565 17.94165,-13.54087 18.95721,-36.89887 18.95721,-49.08565 0,-13.20235 -1.35408,-23.358 -1.35408,-33.85217 0,-14.55644 2.36965,-24.37357 8.80156,-30.80548 7.10896,-7.10896 15.91052,-6.77044 21.66539,-6.77044 h 6.77044 z" />
        </g>
      </g>
    </g>
  </g>
</svg>
