<svg width="165" height="44" viewBox="0 0 165 44" fill="none" xmlns="http://www.w3.org/2000/svg"><g clip-path="url(#clip0)"><path d="M21.2286 9.95047C21.4881 9.95047 21.6957 9.95047 21.9552 9.95047C24.1352 9.95047 26.2113 10.5724 27.976 11.6089C29.7407 12.6454 31.194 14.1483 32.1802 15.9622C32.6473 16.7396 33.6334 17.0505 34.412 16.5841C35.1905 16.1177 35.502 15.133 35.0348 14.3556C33.7372 12.0753 31.8687 10.1578 29.6369 8.81032C27.4051 7.46286 24.758 6.68549 21.9033 6.68549C21.5919 6.68549 21.2805 6.68549 20.9691 6.73731C20.0348 6.78914 19.3601 7.56651 19.412 8.49936C19.5158 9.27674 20.2943 10.0023 21.2286 9.95047Z" fill="url(#paint0_linear)"></path><path d="M12.0419 28.0373C10.8481 26.1716 10.1215 23.995 10.1215 21.611C10.1215 18.8643 11.0557 16.3767 12.6128 14.4073C12.6647 14.3037 12.7685 14.2 12.8204 14.1482C13.3914 13.4227 13.2876 12.3862 12.6128 11.8161C11.8862 11.246 10.8481 11.3497 10.2772 12.0234C10.1734 12.127 10.0696 12.2825 10.0177 12.3862C8.04533 14.9256 6.85156 18.1387 6.85156 21.611C6.85156 24.6169 7.73392 27.4673 9.29101 29.8512C9.81004 30.6286 10.7962 30.8359 11.5747 30.3176C12.3533 29.7994 12.5609 28.7629 12.0419 28.0373Z" fill="url(#paint1_linear)"></path><path d="M32.2841 27.1563C31.3498 28.9184 29.9484 30.4213 28.2356 31.5096C26.5228 32.598 24.5505 33.2199 22.4225 33.3235C21.4882 33.3754 20.8135 34.1527 20.8135 35.0338C20.8654 35.9666 21.6439 36.6403 22.5263 36.6403C25.2771 36.5367 27.8204 35.6557 29.9484 34.3082C32.1284 32.9089 33.8931 30.9914 35.1387 28.7111C35.554 27.8819 35.2425 26.8972 34.464 26.4826C33.7374 26.0162 32.6993 26.3271 32.2841 27.1563Z" fill="url(#paint2_linear)"></path><path d="M20.7088 3.36863C21.0721 3.36863 21.4354 3.31681 21.8506 3.31681C26.989 3.31681 31.6084 5.38981 34.9302 8.70662C38.3039 12.0752 40.3282 16.6877 40.3282 21.7665C40.3282 26.8972 38.252 31.5097 34.9302 34.8265C31.5565 38.1951 26.9371 40.2163 21.8506 40.2163C17.8541 40.2163 14.2209 38.9725 11.1586 36.8476C8.14821 34.7228 5.81257 31.717 4.46309 28.1929C4.15167 27.4155 3.21742 26.9491 2.33506 27.26C1.45271 27.571 1.03749 28.5556 1.34891 29.3848C2.906 33.5308 5.65686 37.0549 9.23818 39.5944C12.7676 42.082 17.1275 43.5849 21.7987 43.5849C27.8195 43.5849 33.2693 41.1491 37.214 37.2104C41.1586 33.2717 43.5981 27.8301 43.5981 21.8184C43.5981 15.8067 41.1586 10.365 37.214 6.42631C33.3212 2.43578 27.8714 0 21.8506 0C21.3835 0 20.9683 0 20.5012 0.0518251C19.5669 0.10365 18.8922 0.881027 18.9441 1.81388C18.996 2.69491 19.7745 3.42046 20.7088 3.36863Z" fill="url(#paint3_linear)"></path><path d="M4.30757 15.8585C5.08612 13.5781 6.33179 11.4533 7.88888 9.63944C8.51172 8.96571 8.40791 7.92921 7.73317 7.30731C7.05843 6.68541 6.02037 6.78906 5.39753 7.46279C3.52902 9.58761 2.07573 12.0752 1.14148 14.7701C0.83006 15.6512 1.29719 16.584 2.17954 16.895C3.06189 17.1541 3.99615 16.6877 4.30757 15.8585Z" fill="url(#paint4_linear)"></path><path d="M3.58132 21.8184C3.58132 22.8031 2.80277 23.5804 1.81661 23.5804C0.83045 23.5804 0 22.8031 0 21.8184C0 20.8337 0.778547 20.0563 1.76471 20.0563C2.75087 20.0563 3.58132 20.8337 3.58132 21.8184Z" fill="url(#paint5_linear)"></path><path d="M34.5159 18.5534C33.2183 18.5534 32.0764 19.4344 31.7131 20.6264H30.0522C29.5332 16.584 26.0556 13.4227 21.7996 13.4227C20.7615 13.4227 19.7754 13.63 18.893 13.9409L15.0522 6.63359C15.5193 6.11534 15.8307 5.38979 15.8307 4.61241C15.8307 3.00583 14.5331 1.71021 12.9242 1.71021C11.3152 1.71021 10.0176 3.00583 10.0176 4.61241C10.0176 6.21899 11.3152 7.51461 12.9242 7.51461C13.0799 7.51461 13.2356 7.51461 13.3913 7.46279L17.2321 14.7701C14.9484 16.2731 13.4951 18.8125 13.4951 21.7147C13.4951 24.5651 14.8965 27.0527 17.0764 28.5556L16.4017 29.7994C16.246 29.7994 16.0902 29.7476 15.9345 29.7476C14.3255 29.7476 13.028 31.0432 13.028 32.6498C13.028 34.2564 14.3255 35.552 15.9345 35.552C17.5435 35.552 18.8411 34.2564 18.8411 32.6498C18.8411 31.8724 18.5297 31.1987 18.0626 30.6804L18.6854 29.5403C19.6716 29.903 20.7096 30.1622 21.7996 30.1622C26.1594 30.1622 29.7408 26.8454 30.1041 22.5439H31.765C32.1802 23.6322 33.2702 24.4096 34.5159 24.4096C36.1248 24.4096 37.4224 23.114 37.4224 21.5074C37.4224 19.9008 36.1248 18.5534 34.5159 18.5534Z" fill="url(#paint6_linear)"></path><path d="M68.2525 34.2564C67.8892 34.4637 67.5259 34.5674 67.2145 34.4637C66.903 34.3601 66.5916 34.1528 66.384 33.79L60.5189 24.1505H54.7577V32.8053C54.7577 33.7382 54.2906 34.2046 53.4082 34.2046C52.474 34.2046 52.0068 33.7382 52.0068 32.8053V10.7796C52.0068 9.8468 52.474 9.38037 53.4082 9.38037H62.1279C64.3598 9.38037 66.0207 9.95045 67.2145 11.1424C68.3563 12.3344 68.9792 13.9928 68.9792 16.2213V17.3614C68.9792 19.279 68.512 20.8337 67.6297 21.9739C66.7473 23.114 65.4497 23.7878 63.7369 24.0987L68.8235 32.4425C69.2387 33.1681 69.0311 33.79 68.2525 34.2564ZM54.8096 21.4556H62.1799C63.6331 21.4556 64.6712 21.1447 65.3459 20.5228C65.9688 19.9009 66.2802 18.8644 66.2802 17.3614V16.2213C66.2802 14.7702 65.9688 13.7337 65.3459 13.06C64.7231 12.4381 63.685 12.1271 62.1799 12.1271H54.8096V21.4556Z" fill="#4F4F4F"></path><path d="M80.6058 34.2045C78.1664 34.2045 76.4017 33.6345 75.2598 32.4943C74.118 31.3542 73.4951 29.5403 73.4951 27.1563V22.9067C73.4951 20.4709 74.066 18.657 75.2598 17.5169C76.4017 16.3767 78.2183 15.8066 80.6058 15.8066H83.6681C86.1076 15.8066 87.8723 16.3767 89.0141 17.5169C90.156 18.657 90.7269 20.4709 90.7269 22.8549V27.1045C90.7269 29.5403 90.156 31.3023 89.0141 32.4425C87.8723 33.5826 86.0557 34.2045 83.6681 34.2045H80.6058ZM76.246 27.1045C76.246 28.7629 76.5574 29.9031 77.1802 30.525C77.8031 31.1469 78.9449 31.4578 80.6058 31.4578H83.6681C85.329 31.4578 86.4709 31.1469 87.0937 30.525C87.7166 29.9031 88.028 28.7629 88.028 27.1045V22.8549C88.028 21.1964 87.7166 20.0563 87.0937 19.4344C86.4709 18.8125 85.329 18.5015 83.6681 18.5015H80.6058C79.464 18.5015 78.6335 18.657 77.9588 18.9161C77.3359 19.1753 76.8688 19.6417 76.6093 20.2636C76.3498 20.8855 76.1941 21.7665 76.1941 22.9067V27.1045H76.246Z" fill="#4F4F4F"></path><path d="M98.1485 34.2046C97.7851 34.2046 97.4737 34.0491 97.1623 33.79C96.9028 33.5309 96.7471 33.2199 96.7471 32.8053V10.7796C96.7471 10.4169 96.9028 10.1059 97.1623 9.79497C97.4218 9.53585 97.7332 9.38037 98.1485 9.38037C98.5118 9.38037 98.8232 9.53585 99.0827 9.79497C99.3422 10.0541 99.4979 10.365 99.4979 10.7796V20.2636H114.809V10.7796C114.809 10.4169 114.965 10.1059 115.225 9.79497C115.484 9.53585 115.796 9.38037 116.211 9.38037C116.574 9.38037 116.885 9.53585 117.197 9.79497C117.456 10.0541 117.612 10.365 117.612 10.7796V32.8053C117.612 33.1681 117.456 33.479 117.197 33.79C116.937 34.0491 116.626 34.2046 116.211 34.2046C115.847 34.2046 115.484 34.0491 115.225 33.79C114.965 33.5309 114.809 33.2199 114.809 32.8053V23.0104H99.4979V32.8053C99.4979 33.1681 99.3422 33.479 99.0827 33.79C98.8751 34.0491 98.5118 34.2046 98.1485 34.2046Z" fill="#4F4F4F"></path><path d="M139.568 15.7548C140.502 15.7548 140.969 16.2212 140.969 17.1541V32.8571C140.969 33.7381 140.502 34.2046 139.568 34.2046C138.685 34.2046 138.218 33.7381 138.218 32.8571V31.8724C136.973 33.4272 134.948 34.2564 132.197 34.2564H131.159C128.72 34.2564 126.955 33.6863 125.813 32.5462C124.672 31.406 124.101 29.5921 124.101 27.2082V17.1541C124.101 16.2212 124.568 15.7548 125.45 15.7548C126.384 15.7548 126.851 16.2212 126.851 17.1541V27.1045C126.851 28.7629 127.163 29.9031 127.786 30.525C128.409 31.1469 129.55 31.4578 131.211 31.4578H132.249C133.91 31.4578 135.26 31.2505 136.35 30.8359C137.44 30.4213 138.063 29.7476 138.27 28.8147V17.1541C138.166 16.2212 138.633 15.7548 139.568 15.7548Z" fill="#4F4F4F"></path><path d="M149.117 34.2046C148.183 34.2046 147.716 33.7381 147.716 32.8053V9.53581C147.716 8.60296 148.183 8.13654 149.117 8.13654C150 8.13654 150.467 8.60296 150.467 9.53581V17.9833C151.09 17.2578 151.868 16.6877 152.854 16.3249C153.84 15.9621 155.034 15.7548 156.436 15.7548H157.837C160.276 15.7548 162.041 16.3249 163.183 17.4651C164.325 18.6052 164.896 20.4191 164.896 22.8549V27.1045C164.896 29.5403 164.325 31.3023 163.183 32.4425C162.041 33.5827 160.224 34.2046 157.837 34.2046H156.436C155.034 34.2046 153.84 33.9973 152.854 33.6345C151.868 33.2717 151.09 32.7016 150.467 32.0279V32.8053C150.467 33.7381 150 34.2046 149.117 34.2046ZM156.487 31.4578H157.889C159.55 31.4578 160.692 31.1469 161.314 30.525C161.937 29.9031 162.249 28.7629 162.249 27.1045V22.8549C162.249 21.1965 161.937 20.0563 161.314 19.4344C160.692 18.8125 159.55 18.5016 157.889 18.5016H156.487C154.775 18.5016 153.321 18.7607 152.179 19.2271C151.038 19.6935 150.467 20.4709 150.467 21.4556V28.5556C150.467 29.5403 151.038 30.2658 152.179 30.7323C153.321 31.1987 154.723 31.4578 156.487 31.4578Z" fill="#4F4F4F"></path></g><defs><linearGradient id="paint0_linear" x1="16.5228" y1="11.674" x2="32.3311" y2="11.674" gradientUnits="userSpaceOnUse"><stop stop-color="#1970F3"></stop><stop offset="0.3028" stop-color="#1798D2"></stop><stop offset="0.5859" stop-color="#15B6B9"></stop><stop offset="0.8278" stop-color="#14C8AA"></stop><stop offset="1" stop-color="#14CFA5"></stop></linearGradient><linearGradient id="paint1_linear" x1="6.81772" y1="21.0048" x2="25.702" y2="21.0048" gradientUnits="userSpaceOnUse"><stop stop-color="#1970F3"></stop><stop offset="0.3028" stop-color="#1798D2"></stop><stop offset="0.5859" stop-color="#15B6B9"></stop><stop offset="0.8278" stop-color="#14C8AA"></stop><stop offset="1" stop-color="#14CFA5"></stop></linearGradient><linearGradient id="paint2_linear" x1="17.8137" y1="31.4393" x2="32.3525" y2="31.4393" gradientUnits="userSpaceOnUse"><stop stop-color="#1970F3"></stop><stop offset="0.3028" stop-color="#1798D2"></stop><stop offset="0.5859" stop-color="#15B6B9"></stop><stop offset="0.8278" stop-color="#14C8AA"></stop><stop offset="1" stop-color="#14CFA5"></stop></linearGradient><linearGradient id="paint3_linear" x1="1.26503" y1="21.795" x2="43.6569" y2="21.795" gradientUnits="userSpaceOnUse"><stop stop-color="#1970F3"></stop><stop offset="0.3028" stop-color="#1798D2"></stop><stop offset="0.5859" stop-color="#15B6B9"></stop><stop offset="0.8278" stop-color="#14C8AA"></stop><stop offset="1" stop-color="#14CFA5"></stop></linearGradient><linearGradient id="paint4_linear" x1="1.06881" y1="11.9336" x2="22.4504" y2="11.9336" gradientUnits="userSpaceOnUse"><stop stop-color="#1970F3"></stop><stop offset="0.3028" stop-color="#1798D2"></stop><stop offset="0.5859" stop-color="#15B6B9"></stop><stop offset="0.8278" stop-color="#14C8AA"></stop><stop offset="1" stop-color="#14CFA5"></stop></linearGradient><linearGradient id="paint5_linear" x1="0" y1="21.7953" x2="17.3758" y2="21.7953" gradientUnits="userSpaceOnUse"><stop stop-color="#1970F3"></stop><stop offset="0.3028" stop-color="#1798D2"></stop><stop offset="0.5859" stop-color="#15B6B9"></stop><stop offset="0.8278" stop-color="#14C8AA"></stop><stop offset="1" stop-color="#14CFA5"></stop></linearGradient><linearGradient id="paint6_linear" x1="9.99479" y1="18.7081" x2="37.4367" y2="18.7081" gradientUnits="userSpaceOnUse"><stop stop-color="#1970F3"></stop><stop offset="0.3028" stop-color="#1798D2"></stop><stop offset="0.5859" stop-color="#15B6B9"></stop><stop offset="0.8278" stop-color="#14C8AA"></stop><stop offset="1" stop-color="#14CFA5"></stop></linearGradient><clipPath id="clip0"><rect width="165" height="43.5849" fill="white"></rect></clipPath></defs></svg>