<?xml version="1.0" standalone="no"?>
<!DOCTYPE svg PUBLIC "-//W3C//DTD SVG 20010904//EN"
 "http://www.w3.org/TR/2001/REC-SVG-20010904/DTD/svg10.dtd">
<svg version="1.0" xmlns="http://www.w3.org/2000/svg"
 width="568.000000pt" height="568.000000pt" viewBox="0 0 568.000000 568.000000"
 preserveAspectRatio="xMidYMid meet">
<metadata>
Created by potrace 1.14, written by Peter Selinger 2001-2017
</metadata>
<g transform="translate(0.000000,568.000000) scale(0.100000,-0.100000)"
fill="#000000" stroke="none">
<path d="M1324 4985 c-422 -65 -670 -336 -715 -782 -9 -87 -9 -169 0 -341 12
-239 6 -344 -25 -451 -51 -177 -175 -294 -341 -321 -32 -6 -100 -10 -150 -10
l-93 0 0 -149 0 -148 138 -5 c168 -6 225 -25 308 -100 63 -59 106 -135 131
-235 18 -74 21 -238 14 -728 -4 -285 6 -385 53 -522 64 -189 180 -332 331
-410 166 -85 279 -103 668 -103 l287 0 0 149 0 149 -272 4 c-246 4 -280 7
-339 27 -126 40 -226 124 -282 236 -69 139 -82 258 -66 610 9 209 9 295 0 382
-35 331 -156 550 -366 660 l-78 40 61 33 c138 73 253 197 322 345 73 154 75
174 75 600 1 369 1 382 24 450 52 160 140 256 279 307 52 19 83 22 355 26
l297 4 0 149 0 149 -267 -1 c-161 -1 -301 -6 -349 -14z"/>
<path d="M3750 4851 l0 -151 253 0 c272 0 349 -8 430 -44 75 -33 158 -113 200
-193 69 -132 80 -227 65 -539 -9 -175 -9 -258 0 -339 30 -270 154 -469 375
-601 l84 -50 -71 -34 c-108 -51 -220 -168 -279 -291 -94 -195 -116 -363 -98
-754 16 -352 3 -471 -66 -610 -56 -111 -156 -195 -282 -237 -60 -19 -92 -22
-338 -26 l-273 -4 0 -150 0 -150 338 5 c358 5 399 10 535 61 215 81 372 264
436 509 36 139 45 262 35 517 -14 362 -11 582 10 665 23 97 57 165 107 220 84
91 180 125 362 125 l107 0 0 150 0 150 -97 0 c-112 0 -212 19 -274 51 -59 30
-138 114 -171 181 -61 124 -62 138 -63 553 -1 394 -4 433 -47 573 -66 217
-235 405 -438 488 -139 56 -210 66 -537 71 l-303 5 0 -151z"/>
<path d="M3060 4473 c-29 -26 -32 -34 -40 -128 -19 -207 -30 -618 -20 -765 16
-252 40 -303 359 -745 95 -132 172 -252 208 -322 52 -103 56 -117 57 -181 1
-62 -2 -74 -24 -97 -59 -63 -233 -128 -435 -161 -137 -23 -518 -26 -665 -5
-259 36 -438 112 -484 205 -17 36 -18 41 -3 101 30 119 87 218 293 502 211
291 283 415 318 553 22 84 31 281 18 395 -9 78 -14 92 -37 112 -37 32 -94 31
-125 -2 -22 -24 -23 -30 -24 -222 -1 -189 -3 -202 -29 -277 -37 -105 -79 -175
-242 -401 -181 -252 -235 -334 -289 -441 -59 -118 -76 -181 -76 -279 0 -101
28 -163 102 -230 286 -257 1217 -303 1667 -82 77 38 162 113 199 176 24 41 27
56 27 136 0 172 -74 321 -338 682 -135 184 -223 321 -255 395 l-27 63 0 402
c0 299 3 405 12 414 26 26 276 -85 438 -194 123 -84 323 -285 404 -407 117
-175 195 -361 238 -560 25 -118 25 -418 0 -543 -61 -300 -192 -544 -411 -763
-214 -213 -452 -342 -749 -406 -147 -31 -429 -31 -570 0 -608 135 -1043 575
-1164 1178 -26 134 -24 415 5 550 62 287 187 527 382 728 85 89 250 226 271
226 5 0 14 -10 20 -22 42 -83 87 -87 257 -24 196 72 212 84 212 156 0 38 -29
70 -151 171 -119 99 -134 108 -175 109 -44 0 -75 -29 -94 -86 -16 -46 -22 -52
-118 -111 -463 -281 -751 -726 -812 -1258 -34 -299 23 -619 159 -900 299 -612
954 -986 1626 -927 407 36 750 195 1035 481 150 151 231 262 316 436 74 151
114 266 145 420 20 93 23 141 23 315 0 175 -3 220 -23 310 -109 509 -425 932
-881 1182 -130 71 -407 168 -482 168 -10 0 -32 -12 -48 -27z"/>
<path d="M2529 2747 c-171 -51 -258 -141 -262 -273 -2 -48 1 -56 32 -88 40
-41 125 -81 223 -104 57 -13 121 -17 288 -16 188 0 226 3 305 22 102 26 199
75 222 113 38 63 -18 182 -117 250 -119 82 -268 119 -473 118 -117 0 -155 -4
-218 -22z"/>
</g>
</svg>
