<?xml version="1.0" encoding="UTF-8" standalone="no"?>
<svg
   xmlns:dc="http://purl.org/dc/elements/1.1/"
   xmlns:cc="http://creativecommons.org/ns#"
   xmlns:rdf="http://www.w3.org/1999/02/22-rdf-syntax-ns#"
   xmlns:svg="http://www.w3.org/2000/svg"
   xmlns="http://www.w3.org/2000/svg"
   xmlns:sodipodi="http://sodipodi.sourceforge.net/DTD/sodipodi-0.dtd"
   xmlns:inkscape="http://www.inkscape.org/namespaces/inkscape"
   width="76.39193mm"
   height="39.791973mm"
   viewBox="0 0 76.39193 39.791973"
   version="1.1"
   id="svg8"
   inkscape:version="1.0.2 (e86c870879, 2021-01-15)"
   sodipodi:docname="WfExS-logo-final_paths.svg"
   inkscape:export-filename="/home/jmfernandez/projects/WfExS-backend/docs/WfExS-logo.png"
   inkscape:export-xdpi="300.04153"
   inkscape:export-ydpi="300.04153">
  <title
     id="title19">Workflow Execution Service backend logo</title>
  <defs
     id="defs2" />
  <sodipodi:namedview
     id="base"
     pagecolor="#ffffff"
     bordercolor="#666666"
     borderopacity="1.0"
     inkscape:pageopacity="0.0"
     inkscape:pageshadow="2"
     inkscape:zoom="3.1289533"
     inkscape:cx="88.74477"
     inkscape:cy="50.129065"
     inkscape:document-units="mm"
     inkscape:current-layer="layer1"
     inkscape:document-rotation="0"
     showgrid="false"
     fit-margin-top="0"
     fit-margin-left="0"
     fit-margin-right="0"
     fit-margin-bottom="0"
     inkscape:window-width="1920"
     inkscape:window-height="1025"
     inkscape:window-x="0"
     inkscape:window-y="0"
     inkscape:window-maximized="1" />
  <metadata
     id="metadata5">
    <rdf:RDF>
      <cc:Work
         rdf:about="">
        <dc:format>image/svg+xml</dc:format>
        <dc:type
           rdf:resource="http://purl.org/dc/dcmitype/StillImage" />
        <dc:title>Workflow Execution Service backend logo</dc:title>
        <cc:license
           rdf:resource="http://creativecommons.org/licenses/by/4.0/" />
        <dc:creator>
          <cc:Agent>
            <dc:title>José María Fernández González</dc:title>
          </cc:Agent>
        </dc:creator>
        <dc:contributor>
          <cc:Agent>
            <dc:title>Salvador Capella-Gutiérrez, Laura Rodríguez</dc:title>
          </cc:Agent>
        </dc:contributor>
      </cc:Work>
      <cc:License
         rdf:about="http://creativecommons.org/licenses/by/4.0/">
        <cc:permits
           rdf:resource="http://creativecommons.org/ns#Reproduction" />
        <cc:permits
           rdf:resource="http://creativecommons.org/ns#Distribution" />
        <cc:requires
           rdf:resource="http://creativecommons.org/ns#Notice" />
        <cc:requires
           rdf:resource="http://creativecommons.org/ns#Attribution" />
        <cc:permits
           rdf:resource="http://creativecommons.org/ns#DerivativeWorks" />
      </cc:License>
    </rdf:RDF>
  </metadata>
  <g
     inkscape:label="Layer 1"
     inkscape:groupmode="layer"
     id="layer1"
     transform="translate(-67.793343,-162.70259)">
    <g
       id="g1339"
       transform="translate(12.669308)">
      <rect
         style="fill:#44a0fc;fill-opacity:1;stroke:#44a0fc;stroke-width:2;stroke-miterlimit:4;stroke-dasharray:none;stroke-opacity:1"
         id="rect841-3"
         width="74.39193"
         height="37.791973"
         x="56.124035"
         y="163.70259"
         ry="10.764654" />
      <path
         id="rect841-56"
         style="fill:#1f8787;fill-opacity:1;stroke:none;stroke-width:2;stroke-miterlimit:4;stroke-dasharray:none;stroke-opacity:1"
         d="m 66.94209,163.82556 h 3.991873 c 5.92481,0 10.695282,4.76979 10.695037,10.69461 l -6.67e-4,16.15683 c -2.45e-4,5.92482 4.76979,10.69461 10.694,10.69461 H 66.94209 c -5.924811,0 -10.694426,-4.76979 -10.694604,-10.69461 L 56.247,174.52017 c -1.78e-4,-5.92482 4.770279,-10.69461 10.69509,-10.69461 z"
         sodipodi:nodetypes="sssscssss" />
      <path
         id="rect841-56-9"
         style="fill:#f9b233;fill-opacity:1;stroke:none;stroke-width:2;stroke-miterlimit:4;stroke-dasharray:none;stroke-opacity:1"
         d="m 119.69833,201.3716 h -3.99189 c -5.92485,0 -10.69475,-4.76979 -10.69466,-10.69461 l 2.3e-4,-16.15683 c 8e-5,-5.92482 -4.76982,-10.69461 -10.69407,-10.69461 h 25.38039 c 5.92485,0 10.69467,4.76979 10.69467,10.69461 v 16.15683 c 0,5.92482 -4.76982,10.69461 -10.69467,10.69461 z"
         sodipodi:nodetypes="sssscssss" />
      <g
         aria-label="Wf"
         id="text835"
         style="font-style:normal;font-variant:normal;font-weight:bold;font-stretch:normal;font-size:16.9333px;line-height:1.25;font-family:'Comic Neue';-inkscape-font-specification:'Comic Neue, Bold';font-variant-ligatures:normal;font-variant-caps:normal;font-variant-numeric:normal;font-variant-east-asian:normal;fill:#ffffff;stroke-width:0.264583">
        <path
           d="M 68.247063,184.51736 66.232,177.20217 c -0.118533,-0.4064 -0.406399,-0.59266 -0.778932,-0.59266 -0.389466,0 -0.677332,0.16933 -0.812798,0.57573 l -2.370662,7.31518 -2.218263,-7.29825 c -0.118533,-0.37253 -0.406399,-0.59266 -0.812798,-0.59266 -0.457199,0 -0.812798,0.32173 -0.812798,0.74506 0,0.13547 0,0.23707 0.08467,0.54187 l 2.946394,9.66891 c 0.118533,0.37253 0.3556,0.57573 0.778932,0.57573 0.389466,0 0.660399,-0.11853 0.812799,-0.57573 l 2.319862,-7.17972 1.981196,7.14585 c 0.1016,0.38947 0.372532,0.6096 0.812798,0.6096 0.355599,0 0.643466,-0.2032 0.761999,-0.54186 l 3.572926,-9.88905 c 0.08467,-0.254 0.08467,-0.4064 0.08467,-0.54187 0,-0.42333 -0.355599,-0.74506 -0.812798,-0.74506 -0.406399,0 -0.677332,0.22013 -0.812798,0.59266 z"
           style="font-style:normal;font-variant:normal;font-weight:bold;font-stretch:normal;font-size:16.9333px;font-family:'Comic Neue';-inkscape-font-specification:'Comic Neue, Bold';font-variant-ligatures:normal;font-variant-caps:normal;font-variant-numeric:normal;font-variant-east-asian:normal;fill:#ffffff;stroke-width:0.264583"
           id="path23" />
        <path
           d="m 74.335907,179.6575 c -0.389466,0 -0.761999,0.37253 -0.761999,0.79586 0,0.4064 0.372533,0.77894 0.778932,0.77894 h 0.778932 v 6.12985 c 0,0.4064 0.389466,0.77893 0.812798,0.77893 0.423333,0 0.812799,-0.37253 0.812799,-0.77893 v -6.12985 h 1.74413 c 0.423332,0 0.761998,-0.37254 0.761998,-0.77894 0,-0.44026 -0.423332,-0.77893 -0.761998,-0.77893 l -1.727197,-0.0169 c 0.1016,-1.1684 0.609599,-1.33773 2.015063,-1.33773 0.507999,0 0.795865,-0.37253 0.795865,-0.79587 0,-0.62653 -0.423333,-0.77893 -0.982132,-0.77893 -2.319862,0 -3.352793,0.72813 -3.454393,2.91253 z"
           style="font-style:normal;font-variant:normal;font-weight:bold;font-stretch:normal;font-size:16.9333px;font-family:'Comic Neue';-inkscape-font-specification:'Comic Neue, Bold';font-variant-ligatures:normal;font-variant-caps:normal;font-variant-numeric:normal;font-variant-east-asian:normal;fill:#ffffff;stroke-width:0.264583"
           id="path25" />
      </g>
      <g
         aria-label="Ex"
         id="text835-2"
         style="font-style:normal;font-variant:normal;font-weight:bold;font-stretch:normal;font-size:16.9333px;line-height:1.25;font-family:'Comic Neue';-inkscape-font-specification:'Comic Neue, Bold';font-variant-ligatures:normal;font-variant-caps:normal;font-variant-numeric:normal;font-variant-east-asian:normal;fill:#ffffff;stroke-width:0.264583">
        <path
           d="m 85.950974,186.36308 v -3.42052 h 5.147723 c 0.474132,0 0.829732,-0.37254 0.829732,-0.84667 0,-0.47413 -0.3556,-0.82973 -0.829732,-0.82973 h -5.147723 v -3.06493 h 5.926655 c 0.474132,0 0.829732,-0.38946 0.829732,-0.84666 0,-0.47414 -0.3556,-0.84667 -0.829732,-0.84667 h -6.756387 c -0.474132,0 -0.846665,0.37253 -0.846665,0.84667 v 9.85518 c 0,0.47413 0.372533,0.84666 0.846665,0.84666 h 6.72252 c 0.474133,0 0.829732,-0.37253 0.829732,-0.84666 0,-0.47414 -0.355599,-0.84667 -0.829732,-0.84667 z"
           style="font-style:normal;font-variant:normal;font-weight:bold;font-stretch:normal;font-size:16.9333px;font-family:'Comic Neue';-inkscape-font-specification:'Comic Neue, Bold';font-variant-ligatures:normal;font-variant-caps:normal;font-variant-numeric:normal;font-variant-east-asian:normal;fill:#ffffff;stroke-width:0.264583"
           id="path18" />
        <path
           d="m 102.26991,180.99523 c 0.13547,-0.13547 0.23707,-0.33867 0.23707,-0.5588 0,-0.42334 -0.38947,-0.8128 -0.8128,-0.8128 -0.2032,0 -0.4064,0.0677 -0.59267,0.254 l -2.607723,2.72626 -2.235196,-2.7432 c -0.186266,-0.22013 -0.406399,-0.27093 -0.609599,-0.27093 -0.440265,0 -0.795865,0.38947 -0.795865,0.82973 0,0.18627 0.08467,0.38947 0.220133,0.54187 l 2.269062,2.70933 -2.878661,2.96332 c -0.203199,0.2032 -0.237066,0.38947 -0.237066,0.59267 0,0.42333 0.355599,0.8128 0.795865,0.8128 0.2032,0 0.406399,-0.0339 0.592666,-0.23707 l 2.777061,-2.94639 2.404533,2.94639 c 0.1524,0.16934 0.38946,0.254 0.59266,0.254 0.44027,0 0.8128,-0.3556 0.8128,-0.8128 0,-0.18626 -0.0508,-0.3556 -0.16933,-0.508 l -2.472265,-2.96332 z"
           style="font-style:normal;font-variant:normal;font-weight:bold;font-stretch:normal;font-size:16.9333px;font-family:'Comic Neue';-inkscape-font-specification:'Comic Neue, Bold';font-variant-ligatures:normal;font-variant-caps:normal;font-variant-numeric:normal;font-variant-east-asian:normal;fill:#ffffff;stroke-width:0.264583"
           id="path20" />
      </g>
      <g
         aria-label="S"
         id="text835-0"
         style="font-style:normal;font-variant:normal;font-weight:bold;font-stretch:normal;font-size:16.9333px;line-height:1.25;font-family:'Comic Neue';-inkscape-font-specification:'Comic Neue, Bold';font-variant-ligatures:normal;font-variant-caps:normal;font-variant-numeric:normal;font-variant-east-asian:normal;fill:#ffffff;stroke-width:0.264583">
        <path
           d="m 117.65879,182.82402 c 2.21826,0.59267 2.37066,1.35467 2.37066,1.91346 0,1.1684 -1.28693,1.69333 -2.30293,1.69333 -0.96519,0 -2.15053,-0.45719 -2.50613,-1.47319 -0.13546,-0.37253 -0.42333,-0.62653 -0.84666,-0.62653 -0.49107,0 -0.8636,0.38946 -0.8636,0.84666 0,0.13547 0.0339,0.3048 0.0847,0.42333 0.6096,1.40547 2.25213,2.45533 4.14866,2.45533 1.81186,0 4.08092,-1.0668 4.08092,-3.40359 0,-1.65946 -1.23613,-2.794 -3.74226,-3.48826 -1.47319,-0.4064 -2.21826,-0.89747 -2.21826,-1.64253 0,-1.04987 1.03293,-1.43933 2.20133,-1.43933 0.93133,0 1.94733,0.37253 2.06586,1.08373 0.0677,0.38947 0.38947,0.7112 0.8128,0.7112 0.47413,0 0.82973,-0.37253 0.82973,-0.88053 0,-2.032 -2.35373,-2.4892 -3.65759,-2.4892 -1.99813,0 -4.06399,0.7112 -4.06399,3.08186 0,1.91346 1.93039,2.794 3.60679,3.23426 z"
           style="font-style:normal;font-variant:normal;font-weight:bold;font-stretch:normal;font-size:16.9333px;font-family:'Comic Neue';-inkscape-font-specification:'Comic Neue, Bold';font-variant-ligatures:normal;font-variant-caps:normal;font-variant-numeric:normal;font-variant-east-asian:normal;fill:#ffffff;stroke-width:0.264583"
           id="path28" />
      </g>
    </g>
  </g>
</svg>
