<?xml version="1.0" encoding="UTF-8" standalone="no"?>
<svg
   xmlns:dc="http://purl.org/dc/elements/1.1/"
   xmlns:cc="http://creativecommons.org/ns#"
   xmlns:rdf="http://www.w3.org/1999/02/22-rdf-syntax-ns#"
   xmlns:svg="http://www.w3.org/2000/svg"
   xmlns="http://www.w3.org/2000/svg"
   viewBox="0 0 173.95 102.7625"
   height="102.7625"
   width="173.95"
   xml:space="preserve"
   version="1.1"
   id="svg2"><metadata
     id="metadata8"><rdf:RDF><cc:Work
         rdf:about=""><dc:format>image/svg+xml</dc:format><dc:type
           rdf:resource="http://purl.org/dc/dcmitype/StillImage" /></cc:Work></rdf:RDF></metadata><defs
     id="defs6" /><g
     transform="matrix(1.25,0,0,-1.25,0,102.7625)"
     id="g10"><g
       transform="scale(0.1,0.1)"
       id="g12"><path
         id="path14"
         style="fill:#be1d2c;fill-opacity:1;fill-rule:nonzero;stroke:none"
         d="m 682.711,203.754 0,17.367 c 0,9.649 7.832,17.469 17.519,17.469 l 17.411,0 c 9.679,0 17.519,-7.82 17.519,-17.469 l 0,-17.367 c 0,-9.637 -7.84,-17.461 -17.519,-17.461 l -17.411,0 c -9.687,0 -17.519,7.824 -17.519,17.461 l 0,0" /><path
         id="path16"
         style="fill:#be1d2c;fill-opacity:1;fill-rule:nonzero;stroke:none"
         d="m 916.207,384.809 -17.363,0 c -9.641,0 -17.461,7.847 -17.461,17.519 l 0,17.422 c 0,9.668 7.82,17.512 17.461,17.512 l 17.363,0 c 9.648,0 17.469,-7.844 17.469,-17.512 l 0,-17.422 c 0,-9.672 -7.821,-17.519 -17.469,-17.519 l 0,0" /><path
         id="path18"
         style="fill:#be1d2c;fill-opacity:1;fill-rule:nonzero;stroke:none"
         d="m 782.113,303.152 0,17.364 c 0,9.64 7.844,17.457 17.512,17.457 l 17.422,0 c 9.668,0 17.508,-7.817 17.508,-17.457 l 0,-17.364 c 0,-9.644 -7.84,-17.461 -17.508,-17.461 l -17.422,0 c -9.668,0 -17.512,7.817 -17.512,17.461 l 0,0" /><path
         id="path20"
         style="fill:#d01d2c;fill-opacity:1;fill-rule:nonzero;stroke:none"
         d="m 735.16,618.316 0,-17.371 c 0,-9.64 -7.84,-17.461 -17.519,-17.461 l -17.422,0 c -9.676,0 -17.508,7.821 -17.508,17.461 l 0,17.371 c 0,9.649 7.832,17.461 17.508,17.461 l 17.422,0 c 9.679,0 17.519,-7.812 17.519,-17.461 l 0,0" /><path
         id="path22"
         style="fill:#f47218;fill-opacity:1;fill-rule:nonzero;stroke:none"
         d="m 501.656,437.262 17.364,0 c 9.648,0 17.46,-7.844 17.46,-17.512 l 0,-17.422 c 0,-9.672 -7.812,-17.519 -17.46,-17.519 l -17.364,0 c -9.648,0 -17.461,7.847 -17.461,17.519 l 0,17.422 c 0,9.668 7.813,17.512 17.461,17.512 l 0,0" /><path
         id="path24"
         style="fill:#f47218;fill-opacity:1;fill-rule:nonzero;stroke:none"
         d="m 635.758,518.922 0,-17.367 c 0,-9.641 -7.844,-17.461 -17.512,-17.461 l -17.422,0 c -9.668,0 -17.508,7.82 -17.508,17.461 l 0,17.367 c 0,9.641 7.84,17.461 17.508,17.461 l 17.422,0 c 9.668,0 17.512,-7.82 17.512,-17.461 l 0,0" /><path
         id="path26"
         style="fill:#f47218;fill-opacity:1;fill-rule:nonzero;stroke:none"
         d="m 682.711,203.754 0,17.367 c 0,9.649 7.832,17.469 17.519,17.469 l 17.411,0 c 9.679,0 17.519,-7.82 17.519,-17.469 l 0,-17.367 c 0,-9.637 -7.84,-17.461 -17.519,-17.461 l -17.411,0 c -9.687,0 -17.519,7.824 -17.519,17.461 l 0,0" /><path
         id="path28"
         style="fill:#f47218;fill-opacity:1;fill-rule:nonzero;stroke:none"
         d="m 782.113,303.152 0,17.364 c 0,9.64 7.844,17.457 17.512,17.457 l 17.422,0 c 9.668,0 17.508,-7.817 17.508,-17.457 l 0,-17.364 c 0,-9.644 -7.84,-17.461 -17.508,-17.461 l -17.422,0 c -9.668,0 -17.512,7.817 -17.512,17.461 l 0,0" /><path
         id="path30"
         style="fill:#f47218;fill-opacity:1;fill-rule:nonzero;stroke:none"
         d="m 916.207,384.809 -17.363,0 c -9.641,0 -17.461,7.847 -17.461,17.519 l 0,17.422 c 0,9.668 7.82,17.512 17.461,17.512 l 17.363,0 c 9.648,0 17.469,-7.844 17.469,-17.512 l 0,-17.422 c 0,-9.672 -7.821,-17.519 -17.469,-17.519 l 0,0" /><path
         id="path32"
         style="fill:#be1d2c;fill-opacity:1;fill-rule:nonzero;stroke:none"
         d="m 676.539,301.016 0,21.457 c 0,11.902 9.688,21.57 21.641,21.57 l 21.511,0 c 11.946,0 21.633,-9.668 21.633,-21.57 l 0,-21.457 c 0,-11.914 -9.687,-21.575 -21.633,-21.575 l -21.511,0 c -11.953,0 -21.641,9.661 -21.641,21.575 l 0,0" /><path
         id="path34"
         style="fill:#be1d2c;fill-opacity:1;fill-rule:nonzero;stroke:none"
         d="m 688.871,106.504 0,13.277 c 0,7.371 6.008,13.348 13.399,13.348 l 13.32,0 c 7.402,0 13.398,-5.977 13.398,-13.348 l 0,-13.277 c 0,-7.3829 -5.996,-13.3595 -13.398,-13.3595 l -13.32,0 c -7.391,0 -13.399,5.9766 -13.399,13.3595 l 0,0" /><path
         id="path36"
         style="fill:#be1d2c;fill-opacity:1;fill-rule:nonzero;stroke:none"
         d="m 818.969,378.648 -21.465,0 c -11.902,0 -21.57,9.688 -21.57,21.629 l 0,21.52 c 0,11.941 9.668,21.637 21.57,21.637 l 21.465,0 c 11.914,0 21.562,-9.696 21.562,-21.637 l 0,-21.52 c 0,-11.941 -9.648,-21.629 -21.562,-21.629 l 0,0" /><path
         id="path38"
         style="fill:#be1d2c;fill-opacity:1;fill-rule:nonzero;stroke:none"
         d="m 1013.47,390.98 -13.28,0 c -7.374,0 -13.358,5.997 -13.358,13.395 l 0,13.324 c 0,7.395 5.984,13.391 13.358,13.391 l 13.28,0 c 7.38,0 13.35,-5.996 13.35,-13.391 l 0,-13.324 c 0,-7.398 -5.97,-13.395 -13.35,-13.395 l 0,0" /><path
         id="path40"
         style="fill:#be1d2c;fill-opacity:1;fill-rule:nonzero;stroke:none"
         d="m 887.563,305.176 0,13.277 c 0,7.383 5.996,13.36 13.39,13.36 l 13.32,0 c 7.391,0 13.399,-5.977 13.399,-13.36 l 0,-13.277 c 0,-7.371 -6.008,-13.352 -13.399,-13.352 l -13.32,0 c -7.394,0 -13.39,5.981 -13.39,13.352 l 0,0" /><path
         id="path42"
         style="fill:#be1d2c;fill-opacity:1;fill-rule:nonzero;stroke:none"
         d="m 788.277,205.898 0,13.278 c 0,7.379 5.996,13.351 13.399,13.351 l 13.32,0 c 7.391,0 13.387,-5.972 13.387,-13.351 l 0,-13.278 c 0,-7.378 -5.996,-13.355 -13.387,-13.355 l -13.32,0 c -7.403,0 -13.399,5.977 -13.399,13.355 l 0,0" /><path
         id="path44"
         style="fill:#d01d2c;fill-opacity:1;fill-rule:nonzero;stroke:none"
         d="m 676.539,301.016 0,21.457 c 0,11.902 9.688,21.57 21.641,21.57 l 21.511,0 c 11.946,0 21.633,-9.668 21.633,-21.57 l 0,-21.457 c 0,-11.914 -9.687,-21.575 -21.633,-21.575 l -21.511,0 c -11.953,0 -21.641,9.661 -21.641,21.575 l 0,0" /><path
         id="path46"
         style="fill:#d01d2c;fill-opacity:1;fill-rule:nonzero;stroke:none"
         d="m 688.871,106.504 0,13.277 c 0,7.371 6.008,13.348 13.399,13.348 l 13.32,0 c 7.402,0 13.398,-5.977 13.398,-13.348 l 0,-13.277 c 0,-7.3829 -5.996,-13.3595 -13.398,-13.3595 l -13.32,0 c -7.391,0 -13.399,5.9766 -13.399,13.3595 l 0,0" /><path
         id="path48"
         style="fill:#d01d2c;fill-opacity:1;fill-rule:nonzero;stroke:none"
         d="m 818.969,378.648 -21.465,0 c -11.902,0 -21.57,9.688 -21.57,21.629 l 0,21.52 c 0,11.941 9.668,21.637 21.57,21.637 l 21.465,0 c 11.914,0 21.562,-9.696 21.562,-21.637 l 0,-21.52 c 0,-11.941 -9.648,-21.629 -21.562,-21.629 l 0,0" /><path
         id="path50"
         style="fill:#d01d2c;fill-opacity:1;fill-rule:nonzero;stroke:none"
         d="m 1013.47,390.98 -13.28,0 c -7.374,0 -13.358,5.997 -13.358,13.395 l 0,13.324 c 0,7.395 5.984,13.391 13.358,13.391 l 13.28,0 c 7.38,0 13.35,-5.996 13.35,-13.391 l 0,-13.324 c 0,-7.398 -5.97,-13.395 -13.35,-13.395 l 0,0" /><path
         id="path52"
         style="fill:#d01d2c;fill-opacity:1;fill-rule:nonzero;stroke:none"
         d="m 887.563,305.176 0,13.277 c 0,7.383 5.996,13.36 13.39,13.36 l 13.32,0 c 7.391,0 13.399,-5.977 13.399,-13.36 l 0,-13.277 c 0,-7.371 -6.008,-13.352 -13.399,-13.352 l -13.32,0 c -7.394,0 -13.39,5.981 -13.39,13.352 l 0,0" /><path
         id="path54"
         style="fill:#f47218;fill-opacity:1;fill-rule:nonzero;stroke:none"
         d="m 788.277,205.898 0,13.278 c 0,7.379 5.996,13.351 13.399,13.351 l 13.32,0 c 7.391,0 13.387,-5.972 13.387,-13.351 l 0,-13.278 c 0,-7.378 -5.996,-13.355 -13.387,-13.355 l -13.32,0 c -7.403,0 -13.399,5.977 -13.399,13.355 l 0,0" /><path
         id="path56"
         style="fill:#d01d2c;fill-opacity:1;fill-rule:nonzero;stroke:none"
         d="m 741.324,521.063 0,-21.454 c 0,-11.914 -9.687,-21.574 -21.633,-21.574 l -21.511,0 c -11.953,0 -21.641,9.66 -21.641,21.574 l 0,21.454 c 0,11.906 9.688,21.57 21.641,21.57 l 21.511,0 c 11.946,0 21.633,-9.664 21.633,-21.57 l 0,0" /><path
         id="path58"
         style="fill:#f47218;fill-opacity:1;fill-rule:nonzero;stroke:none"
         d="m 728.988,715.57 0,-13.273 c 0,-7.379 -5.996,-13.363 -13.398,-13.363 l -13.32,0 c -7.391,0 -13.399,5.984 -13.399,13.363 l 0,13.273 c 0,7.379 6.008,13.356 13.399,13.356 l 13.32,0 c 7.402,0 13.398,-5.977 13.398,-13.356 l 0,0" /><path
         id="path60"
         style="fill:#d01d2c;fill-opacity:1;fill-rule:nonzero;stroke:none"
         d="m 598.91,443.434 21.445,0 c 11.926,0 21.575,-9.696 21.575,-21.637 l 0,-21.52 c 0,-11.941 -9.649,-21.629 -21.575,-21.629 l -21.445,0 c -11.914,0 -21.57,9.688 -21.57,21.629 l 0,21.52 c 0,11.941 9.656,21.637 21.57,21.637 l 0,0" /><path
         id="path62"
         style="fill:#d01d2c;fill-opacity:1;fill-rule:nonzero;stroke:none"
         d="m 404.398,431.09 13.274,0 c 7.383,0 13.359,-5.996 13.359,-13.391 l 0,-13.324 c 0,-7.398 -5.976,-13.395 -13.359,-13.395 l -13.274,0 c -7.378,0 -13.351,5.997 -13.351,13.395 l 0,13.324 c 0,7.395 5.973,13.391 13.351,13.391 l 0,0" /><path
         id="path64"
         style="fill:#d01d2c;fill-opacity:1;fill-rule:nonzero;stroke:none"
         d="m 530.309,516.895 0,-13.282 c 0,-7.375 -5.989,-13.351 -13.391,-13.351 l -13.32,0 c -7.403,0 -13.399,5.976 -13.399,13.351 l 0,13.282 c 0,7.371 5.996,13.347 13.399,13.347 l 13.32,0 c 7.402,0 13.391,-5.976 13.391,-13.347 l 0,0" /><path
         id="path66"
         style="fill:#f47218;fill-opacity:1;fill-rule:nonzero;stroke:none"
         d="m 629.594,616.176 0,-13.281 c 0,-7.379 -5.996,-13.356 -13.399,-13.356 l -13.32,0 c -7.391,0 -13.387,5.977 -13.387,13.356 l 0,13.281 c 0,7.375 5.996,13.344 13.387,13.344 l 13.32,0 c 7.403,0 13.399,-5.969 13.399,-13.344 l 0,0" /><path
         id="path68"
         style="fill:#be1d2c;fill-opacity:1;fill-rule:nonzero;stroke:none"
         d="m 812.945,99.3945 -9.218,0 c -5.118,0 -9.278,4.1405 -9.278,9.2465 l 0,9.195 c 0,5.109 4.16,9.242 9.278,9.242 l 9.218,0 c 5.118,0 9.258,-4.133 9.258,-9.242 l 0,-9.195 c 0,-5.106 -4.14,-9.2465 -9.258,-9.2465 l 0,0" /><path
         id="path70"
         style="fill:#be1d2c;fill-opacity:1;fill-rule:nonzero;stroke:none"
         d="m 912.223,198.676 -9.231,0 c -5.117,0 -9.265,4.137 -9.265,9.25 l 0,9.191 c 0,5.102 4.148,9.246 9.265,9.246 l 9.231,0 c 5.125,0 9.277,-4.144 9.277,-9.246 l 0,-9.191 c 0,-5.113 -4.152,-9.25 -9.277,-9.25 l 0,0" /><path
         id="path72"
         style="fill:#be1d2c;fill-opacity:1;fill-rule:nonzero;stroke:none"
         d="m 1011.51,297.965 -9.23,0 c -5.116,0 -9.276,4.129 -9.276,9.242 l 0,9.188 c 0,5.105 4.16,9.246 9.276,9.246 l 9.23,0 c 5.11,0 9.26,-4.141 9.26,-9.246 l 0,-9.188 c 0,-5.113 -4.15,-9.242 -9.26,-9.242 l 0,0" /><path
         id="path74"
         style="fill:#be1d2c;fill-opacity:1;fill-rule:nonzero;stroke:none"
         d="m 1119.98,415.648 0,-9.222 c 0,-5.125 -4.15,-9.278 -9.26,-9.278 l -9.17,0 c -5.12,0 -9.26,4.153 -9.26,9.278 l 0,9.222 c 0,5.122 4.14,9.274 9.26,9.274 l 9.17,0 c 5.11,0 9.26,-4.152 9.26,-9.274 l 0,0" /><path
         id="path76"
         style="fill:#be1d2c;fill-opacity:1;fill-rule:nonzero;stroke:none"
         d="m 721.703,372.473 -25.535,0 c -14.191,0 -25.684,11.531 -25.684,25.765 l 0,25.606 c 0,14.219 11.493,25.761 25.684,25.761 l 25.535,0 c 14.192,0 25.684,-11.542 25.684,-25.761 l 0,-25.606 c 0,-14.234 -11.492,-25.765 -25.684,-25.765 l 0,0" /><path
         id="path78"
         style="fill:#d01d2c;fill-opacity:1;fill-rule:nonzero;stroke:none"
         d="m 812.945,99.3945 -9.218,0 c -5.118,0 -9.278,4.1405 -9.278,9.2465 l 0,9.195 c 0,5.109 4.16,9.242 9.278,9.242 l 9.218,0 c 5.118,0 9.258,-4.133 9.258,-9.242 l 0,-9.195 c 0,-5.106 -4.14,-9.2465 -9.258,-9.2465 l 0,0" /><path
         id="path80"
         style="fill:#f47218;fill-opacity:1;fill-rule:nonzero;stroke:none"
         d="m 912.223,198.676 -9.231,0 c -5.117,0 -9.265,4.137 -9.265,9.25 l 0,9.191 c 0,5.102 4.148,9.246 9.265,9.246 l 9.231,0 c 5.125,0 9.277,-4.144 9.277,-9.246 l 0,-9.191 c 0,-5.113 -4.152,-9.25 -9.277,-9.25 l 0,0" /><path
         id="path82"
         style="fill:#d01d2c;fill-opacity:1;fill-rule:nonzero;stroke:none"
         d="m 1011.51,297.965 -9.23,0 c -5.116,0 -9.276,4.129 -9.276,9.242 l 0,9.188 c 0,5.105 4.16,9.246 9.276,9.246 l 9.23,0 c 5.11,0 9.26,-4.141 9.26,-9.246 l 0,-9.188 c 0,-5.113 -4.15,-9.242 -9.26,-9.242 l 0,0" /><path
         id="path84"
         style="fill:#d01d2c;fill-opacity:1;fill-rule:nonzero;stroke:none"
         d="m 1119.98,415.648 0,-9.222 c 0,-5.125 -4.15,-9.278 -9.26,-9.278 l -9.17,0 c -5.12,0 -9.26,4.153 -9.26,9.278 l 0,9.222 c 0,5.122 4.14,9.274 9.26,9.274 l 9.17,0 c 5.11,0 9.26,-4.152 9.26,-9.274 l 0,0" /><path
         id="path86"
         style="fill:#d01d2c;fill-opacity:1;fill-rule:nonzero;stroke:none"
         d="m 721.703,372.473 -25.535,0 c -14.191,0 -25.684,11.531 -25.684,25.765 l 0,25.606 c 0,14.219 11.493,25.761 25.684,25.761 l 25.535,0 c 14.192,0 25.684,-11.542 25.684,-25.761 l 0,-25.606 c 0,-14.234 -11.492,-25.765 -25.684,-25.765 l 0,0" /><path
         id="path88"
         style="fill:#f47218;fill-opacity:1;fill-rule:nonzero;stroke:none"
         d="m 604.926,722.672 9.219,0 c 5.128,0 9.277,-4.141 9.277,-9.242 l 0,-9.192 c 0,-5.113 -4.149,-9.25 -9.277,-9.25 l -9.219,0 c -5.117,0 -9.278,4.137 -9.278,9.25 l 0,9.192 c 0,5.101 4.161,9.242 9.278,9.242 l 0,0" /><path
         id="path90"
         style="fill:#f47218;fill-opacity:1;fill-rule:nonzero;stroke:none"
         d="m 505.648,623.387 9.219,0 c 5.117,0 9.27,-4.129 9.27,-9.239 l 0,-9.191 c 0,-5.105 -4.153,-9.242 -9.27,-9.242 l -9.219,0 c -5.125,0 -9.277,4.137 -9.277,9.242 l 0,9.191 c 0,5.11 4.152,9.239 9.277,9.239 l 0,0" /><path
         id="path92"
         style="fill:#d01d2c;fill-opacity:1;fill-rule:nonzero;stroke:none"
         d="m 406.363,524.117 9.227,0 c 5.117,0 9.269,-4.14 9.269,-9.246 l 0,-9.195 c 0,-5.106 -4.152,-9.246 -9.269,-9.246 l -9.227,0 c -5.117,0 -9.269,4.14 -9.269,9.246 l 0,9.195 c 0,5.106 4.152,9.246 9.269,9.246 l 0,0" /><path
         id="path94"
         style="fill:#d01d2c;fill-opacity:1;fill-rule:nonzero;stroke:none"
         d="m 297.895,406.426 0,9.222 c 0,5.122 4.136,9.274 9.25,9.274 l 9.195,0 c 5.101,0 9.242,-4.152 9.242,-9.274 l 0,-9.222 c 0,-5.125 -4.141,-9.278 -9.242,-9.278 l -9.195,0 c -5.114,0 -9.25,4.153 -9.25,9.278 l 0,0" /><path
         id="path96"
         style="fill:#be1d2c;fill-opacity:1;fill-rule:nonzero;stroke:none"
         d="m 713.551,0 -9.231,0 c -5.117,0 -9.265,4.14453 -9.265,9.24219 l 0,9.19531 c 0,5.1133 4.148,9.2422 9.265,9.2422 l 9.231,0 c 5.125,0 9.277,-4.1289 9.277,-9.2422 l 0,-9.19531 C 722.828,4.14453 718.676,0 713.551,0 l 0,0" /><path
         id="path98"
         style="fill:#d01d2c;fill-opacity:1;fill-rule:nonzero;stroke:none"
         d="m 713.551,0 -9.231,0 c -5.117,0 -9.265,4.14453 -9.265,9.24219 l 0,9.19531 c 0,5.1133 4.148,9.2422 9.265,9.2422 l 9.231,0 c 5.125,0 9.277,-4.1289 9.277,-9.2422 l 0,-9.19531 C 722.828,4.14453 718.676,0 713.551,0 l 0,0" /><path
         id="path100"
         style="fill:#d01d2c;fill-opacity:1;fill-rule:nonzero;stroke:none"
         d="m 704.32,822.074 9.219,0 c 5.137,0 9.289,-4.144 9.289,-9.246 l 0,-9.195 c 0,-5.11 -4.152,-9.25 -9.289,-9.25 l -9.219,0 c -5.117,0 -9.265,4.14 -9.265,9.25 l 0,9.195 c 0,5.102 4.148,9.246 9.265,9.246 l 0,0" /><path
         id="path102"
         style="fill:#41434a;fill-opacity:1;fill-rule:nonzero;stroke:none"
         d="m 2.10938,340.758 93.34372,0 0,-19.817 -65.1054,-113.367 65.5312,0 0,-21.496 -95.8789,0 0,19.805 65.1133,113.375 -63.00392,0 0,21.5" /><path
         id="path104"
         style="fill:#41434a;fill-opacity:1;fill-rule:nonzero;stroke:none"
         d="m 164.984,207.152 c 20.016,0 32.032,4.852 32.032,24.024 0,16.437 -10.118,23.597 -27.817,23.597 l -20.019,0 0,-47.621 15.804,0 z m -4.847,67.86 c 15.804,0 31.187,5.261 31.187,25.07 0,14.117 -7.375,19.809 -24.652,19.809 l -17.492,0 0,-44.879 10.957,0 z m -37.086,-88.934 0,154.68 47.625,0 c 35.191,0 47.41,-14.547 47.41,-37.731 0,-21.488 -14.539,-32.66 -29.922,-36.023 l 0,-0.426 c 24.449,-2.32 35.191,-15.808 35.191,-36.875 0,-31.402 -20.859,-43.625 -55.421,-43.625 l -44.883,0" /><path
         id="path106"
         style="fill:#41434a;fill-opacity:1;fill-rule:nonzero;stroke:none"
         d="m 331.445,186.078 -41.722,136.551 -0.641,0 0,-136.551 -13.906,0 0,154.68 23.183,0 40.25,-136.344 0.633,0 40.461,136.344 22.34,0 0,-154.68 -13.914,0 0,136.344 -0.633,0 -41.726,-136.344 -14.325,0" /><path
         id="path108"
         style="fill:#41434a;fill-opacity:1;fill-rule:nonzero;stroke:none"
         d="m 507.379,259.625 -54.16,0 0,-61.324 65.75,0 0,-12.223 -80.918,0 0,154.68 75.859,0 0,-12.235 -60.691,0 0,-56.671 54.16,0 0,-12.227" /><path
         id="path110"
         style="fill:#41434a;fill-opacity:1;fill-rule:nonzero;stroke:none"
         d="m 570.16,198.301 c 42.149,0 55.84,17.281 55.84,65.957 0,42.992 -11.16,64.265 -54.57,64.265 l -10.957,0 0,-130.222 9.687,0 z m -24.863,-12.223 0,154.68 21.914,0 c 57.746,0 74.387,-22.981 74.387,-76.711 0,-56.051 -17.696,-77.969 -74.387,-77.969 l -21.914,0" /><path
         id="path112"
         style="fill:#41434a;fill-opacity:1;fill-rule:nonzero;stroke:none"
         d="m 786.211,578.227 5.598,0 0,-5.457 -18.286,0 0,5.457 5.454,0 0,45.488 -5.454,0 0,5.457 18.286,0 0,-5.457 -5.598,0 0,-45.488" /><path
         id="path114"
         style="fill:#41434a;fill-opacity:1;fill-rule:nonzero;stroke:none"
         d="m 832.066,572.77 -6.836,0 0,24.207 c 0,7.375 -2.226,10.601 -7.539,10.601 -7.593,0 -9.437,-6.223 -9.437,-12.297 l 0,-22.511 -6.848,0 0,39.496 6.297,0 0.317,-5.766 0.078,0 c 1.375,2.766 4.535,6.684 11.293,6.684 8.3,0 12.675,-4.918 12.675,-15.446 l 0,-24.968" /><path
         id="path116"
         style="fill:#41434a;fill-opacity:1;fill-rule:nonzero;stroke:none"
         d="m 839.039,612.266 4.688,0 0,3.613 c 0,8.84 2.91,14.215 11.836,14.215 2.539,0 5,-0.539 6.23,-0.922 l -0.684,-5.227 c -1.464,0.387 -3.164,0.774 -4.921,0.774 -4.239,0 -5.625,-2.848 -5.625,-8.149 l 0,-4.304 9.003,0 0,-5.301 -9.003,0 0,-34.195 -6.836,0 0,34.195 -4.688,0 0,5.301" /><path
         id="path118"
         style="fill:#41434a;fill-opacity:1;fill-rule:nonzero;stroke:none"
         d="m 888.453,592.82 c 0,8.762 -2.148,14.914 -9.219,14.914 -7.089,0 -9.609,-6.379 -9.609,-15.14 0,-8.992 2.07,-15.446 9.453,-15.446 7.129,0 9.375,6.614 9.375,15.672 z m -25.976,-0.304 c 0,13.601 7.07,20.668 17.128,20.668 10.45,0 15.918,-6.911 15.918,-19.899 0,-14.219 -5.859,-21.437 -16.757,-21.437 -11.289,0 -16.289,7.218 -16.289,20.668" /><path
         id="path120"
         style="fill:#41434a;fill-opacity:1;fill-rule:nonzero;stroke:none"
         d="m 923.473,599.125 c 0.703,6.613 -0.684,8.453 -4.063,8.453 -5.859,0 -7.988,-6.223 -7.988,-13.445 l 0,-21.363 -6.856,0 0,39.496 6.309,0 0.313,-5.766 0.156,0 c 1.445,3.387 4.609,6.684 10.058,6.684 6.231,0 9.825,-4.145 8.536,-13.676 l -6.465,-0.383" /><path
         id="path122"
         style="fill:#41434a;fill-opacity:1;fill-rule:nonzero;stroke:none"
         d="m 965.27,605.426 c 2.382,4.844 5.761,7.758 11.679,7.758 7.539,0 11.992,-4.598 11.992,-15.672 l 0,-24.742 -6.855,0 0,24.207 c 0,8.375 -2.676,10.601 -6.992,10.601 -5.059,0 -8.672,-3.687 -8.672,-11.988 l 0,-22.82 -6.758,0 0,24.207 c 0,8.218 -2.539,10.601 -6.934,10.601 -5.605,0 -8.828,-4.07 -8.828,-12.066 l 0,-22.742 -6.757,0 0,39.496 6.23,0 0.293,-5.844 0.078,0 c 1.543,3.23 4.531,6.762 10.527,6.762 6.856,0 9.688,-3.532 10.997,-7.758" /><path
         id="path124"
         style="fill:#41434a;fill-opacity:1;fill-rule:nonzero;stroke:none"
         d="m 1020.11,590.598 c -12.91,-0.461 -15.45,-2.922 -15.45,-7.453 0,-3.614 2.15,-6.305 6.76,-6.305 4.69,0 8.69,3.691 8.69,8.914 l 0,4.844 z m 10.74,-17.75 c -1.52,-0.383 -2.83,-0.539 -3.9,-0.539 -4.16,0 -5.61,2.226 -6.15,5.453 -1.92,-3.528 -5.92,-5.914 -11.45,-5.914 -8.38,0 -11.756,5.3 -11.756,10.754 0,10.218 9.376,11.836 22.516,12.757 l 0,2.614 c 0,7.843 -3.3,9.992 -7.75,9.992 -5.92,0 -7.15,-2.77 -7.15,-6.305 0,-1.152 0.06,-2.305 0.21,-3.453 l -6.049,-0.543 c -0.312,1.309 -0.391,2.613 -0.391,3.84 0,6.84 4.22,11.68 13.91,11.68 12.28,0 13.9,-8.606 13.9,-18.668 l 0,-14.528 c 0,-2.066 0.53,-2.992 2.15,-2.992 0.47,0 1.09,0.074 1.78,0.231 l 0.13,-4.379" /><path
         id="path126"
         style="fill:#41434a;fill-opacity:1;fill-rule:nonzero;stroke:none"
         d="m 1034.02,612.266 4.67,0 0,8.222 6.85,2.305 0,-10.527 8.99,0 0,-5.301 -8.99,0 0,-21.82 c 0,-5.457 1.13,-7.918 5.37,-7.918 1.76,0 3.3,0.308 4.77,0.765 l 0.6,-5.066 c -1.3,-0.539 -3.9,-1.078 -6.75,-1.078 -8.23,0 -10.84,4.613 -10.84,12.523 l 0,22.594 -4.67,0 0,5.301" /><path
         id="path128"
         style="fill:#41434a;fill-opacity:1;fill-rule:nonzero;stroke:none"
         d="m 1063.12,612.266 6.91,0 0,-39.496 -6.91,0 0,39.496 z m 0,16.906 6.91,0 0,-8.227 -6.91,0 0,8.227" /><path
         id="path130"
         style="fill:#41434a;fill-opacity:1;fill-rule:nonzero;stroke:none"
         d="m 1104.92,592.82 c 0,8.762 -2.15,14.914 -9.22,14.914 -7.07,0 -9.61,-6.379 -9.61,-15.14 0,-8.992 2.07,-15.446 9.45,-15.446 7.15,0 9.38,6.614 9.38,15.672 z m -25.98,-0.304 c 0,13.601 7.07,20.668 17.13,20.668 10.47,0 15.92,-6.911 15.92,-19.899 0,-14.219 -5.84,-21.437 -16.76,-21.437 -11.29,0 -16.29,7.218 -16.29,20.668" /><path
         id="path132"
         style="fill:#41434a;fill-opacity:1;fill-rule:nonzero;stroke:none"
         d="m 1151.69,572.77 -6.83,0 0,24.207 c 0,7.375 -2.23,10.601 -7.54,10.601 -7.6,0 -9.43,-6.223 -9.43,-12.297 l 0,-22.511 -6.86,0 0,39.496 6.31,0 0.31,-5.766 0.08,0 c 1.37,2.766 4.53,6.684 11.29,6.684 8.3,0 12.67,-4.918 12.67,-15.446 l 0,-24.968" /><path
         id="path134"
         style="fill:#41434a;fill-opacity:1;fill-rule:nonzero;stroke:none"
         d="m 1206.85,591.824 6.99,-0.613 c -0.84,-13.75 -7.69,-19.363 -18.43,-19.363 -13.44,0 -19.67,9.453 -19.67,28.586 0,20.054 8.43,29.66 21.58,29.66 11.15,0 17.07,-7.914 16.76,-20.364 l -6.92,-0.613 c 0,11.141 -4.24,14.903 -10.52,14.903 -7.68,0 -13.15,-6.602 -13.15,-23.36 0,-15.363 3.77,-22.738 12.44,-22.738 7.07,0 10.45,5.379 10.92,13.902" /><path
         id="path136"
         style="fill:#41434a;fill-opacity:1;fill-rule:nonzero;stroke:none"
         d="m 1245.95,595.977 c 0.24,7.148 -1.91,12.066 -8.22,12.066 -6.62,0 -9.14,-5.77 -9.3,-12.066 l 17.52,0 z m 6.29,-10.528 c -1.15,-11.062 -8.44,-13.601 -14.51,-13.601 -12.46,0 -16.45,8.683 -16.45,20.285 0,12.84 5.84,21.051 17.13,21.051 9.4,0 14.14,-6.371 14.14,-17.52 0,-1.453 -0.07,-2.914 -0.23,-4.531 l -23.89,0 c 0,-7.832 2.07,-13.906 9.46,-13.906 4.84,0 7.83,2.539 8.59,8.757 l 5.76,-0.535" /><path
         id="path138"
         style="fill:#41434a;fill-opacity:1;fill-rule:nonzero;stroke:none"
         d="m 1292.26,572.77 -6.84,0 0,24.207 c 0,7.375 -2.2,10.601 -7.51,10.601 -7.62,0 -9.46,-6.223 -9.46,-12.297 l 0,-22.511 -6.83,0 0,39.496 6.29,0 0.31,-5.766 0.08,0 c 1.38,2.766 4.53,6.684 11.3,6.684 8.29,0 12.66,-4.918 12.66,-15.446 l 0,-24.968" /><path
         id="path140"
         style="fill:#41434a;fill-opacity:1;fill-rule:nonzero;stroke:none"
         d="m 1299.1,612.266 4.68,0 0,8.222 6.84,2.305 0,-10.527 8.98,0 0,-5.301 -8.98,0 0,-21.82 c 0,-5.457 1.15,-7.918 5.37,-7.918 1.78,0 3.32,0.308 4.77,0.765 l 0.62,-5.066 c -1.31,-0.539 -3.92,-1.078 -6.76,-1.078 -8.22,0 -10.84,4.613 -10.84,12.523 l 0,22.594 -4.68,0 0,5.301" /><path
         id="path142"
         style="fill:#41434a;fill-opacity:1;fill-rule:nonzero;stroke:none"
         d="m 1384.98,596.207 c 0.23,7.148 -1.92,12.063 -8.23,12.063 -6.62,0 -9.14,-5.766 -9.29,-12.063 l 17.52,0 z m 6.3,-10.527 c -1.17,-11.067 -8.45,-13.606 -14.53,-13.606 -12.44,0 -16.44,8.688 -16.44,20.289 0,12.836 5.84,21.051 17.13,21.051 9.39,0 14.14,-6.375 14.14,-17.519 0,-1.457 -0.08,-2.918 -0.22,-4.532 l -23.9,0 c 0,-7.832 2.07,-13.906 9.45,-13.906 4.82,0 7.83,2.539 8.59,8.758 l 5.78,-0.535" /><path
         id="path144"
         style="fill:#41434a;fill-opacity:1;fill-rule:nonzero;stroke:none"
         d="m 1348.35,599.125 c 0.71,6.613 -0.68,8.453 -4.06,8.453 -5.86,0 -8.01,-6.223 -8.01,-13.445 l 0,-21.363 -6.83,0 0,39.496 6.31,0 0.29,-5.766 0.16,0 c 1.46,3.387 4.61,6.684 10.07,6.684 6.22,0 9.83,-4.145 8.52,-13.676 l -6.45,-0.383" /><path
         id="path146"
         style="fill:#41434a;fill-opacity:1;fill-rule:nonzero;stroke:none"
         d="m 773.523,520.082 4.68,0 0,3.613 c 0,8.832 2.918,14.219 11.836,14.219 2.527,0 5,-0.535 6.223,-0.926 l -0.688,-5.226 c -1.465,0.386 -3.152,0.765 -4.922,0.765 -4.226,0 -5.613,-2.839 -5.613,-8.136 l 0,-4.309 8.992,0 0,-5.297 -8.992,0 0,-34.195 -6.836,0 0,34.195 -4.68,0 0,5.297" /><path
         id="path148"
         style="fill:#41434a;fill-opacity:1;fill-rule:nonzero;stroke:none"
         d="m 822.926,500.645 c 0,8.757 -2.149,14.906 -9.219,14.906 -7.074,0 -9.613,-6.379 -9.613,-15.137 0,-8.992 2.078,-15.441 9.457,-15.441 7.148,0 9.375,6.597 9.375,15.672 z m -25.973,-0.309 c 0,13.605 7.063,20.672 17.125,20.672 10.469,0 15.918,-6.922 15.918,-19.906 0,-14.207 -5.84,-21.434 -16.758,-21.434 -11.297,0 -16.285,7.227 -16.285,20.668" /><path
         id="path150"
         style="fill:#41434a;fill-opacity:1;fill-rule:nonzero;stroke:none"
         d="m 857.945,506.941 c 0.703,6.614 -0.683,8.454 -4.062,8.454 -5.84,0 -8.008,-6.223 -8.008,-13.446 l 0,-21.359 -6.836,0 0,39.492 6.309,0 0.312,-5.762 0.137,0 c 1.465,3.379 4.609,6.688 10.078,6.688 6.23,0 9.844,-4.153 8.535,-13.68 l -6.465,-0.387" /><path
         id="path152"
         style="fill:#41434a;fill-opacity:1;fill-rule:nonzero;stroke:none"
         d="m 894.879,486.578 20.762,0 0,-5.988 -28.047,0 0,56.398 7.285,0 0,-50.41" /><path
         id="path154"
         style="fill:#41434a;fill-opacity:1;fill-rule:nonzero;stroke:none"
         d="m 923.629,520.082 6.914,0 0,-39.492 -6.914,0 0,39.492 z m 0,16.906 6.914,0 0,-8.218 -6.914,0 0,8.218" /><path
         id="path156"
         style="fill:#41434a;fill-opacity:1;fill-rule:nonzero;stroke:none"
         d="m 937.75,520.082 4.688,0 0,3.613 c 0,8.832 2.929,14.219 11.835,14.219 2.54,0 4.981,-0.535 6.231,-0.926 l -0.703,-5.226 c -1.446,0.386 -3.145,0.765 -4.903,0.765 -4.238,0 -5.625,-2.839 -5.625,-8.136 l 0,-4.309 9.004,0 0,-5.297 -9.004,0 0,-34.195 -6.835,0 0,34.195 -4.688,0 0,5.297" /><path
         id="path158"
         style="fill:#41434a;fill-opacity:1;fill-rule:nonzero;stroke:none"
         d="m 985.855,503.793 c 0.235,7.145 -1.933,12.066 -8.222,12.066 -6.621,0 -9.141,-5.765 -9.317,-12.066 l 17.539,0 z m 6.29,-10.527 c -1.153,-11.063 -8.457,-13.598 -14.512,-13.598 -12.461,0 -16.445,8.68 -16.445,20.289 0,12.824 5.839,21.051 17.128,21.051 9.375,0 14.141,-6.379 14.141,-17.524 0,-1.457 -0.078,-2.921 -0.234,-4.531 l -23.907,0 c 0,-7.84 2.09,-13.902 9.473,-13.902 4.824,0 7.832,2.527 8.594,8.758 l 5.762,-0.543" /><path
         id="path160"
         style="fill:#41434a;fill-opacity:1;fill-rule:nonzero;stroke:none"
         d="m 1042.38,519.773 c -0.61,7.918 -3.54,12.145 -10.3,12.145 -6.15,0 -9.53,-3.305 -9.53,-8.844 0,-6.062 4.24,-8.062 9.53,-9.754 7.84,-2.457 17.84,-4.148 17.84,-16.832 0,-10.593 -7.46,-16.82 -17.99,-16.82 -11.6,0 -17.76,5.219 -18.6,17.598 l 7.23,0.996 c 0.7,-8.141 3.07,-12.453 11.6,-12.453 6.92,0 10.3,3.769 10.3,9.761 0,6.836 -4.93,8.91 -10.53,10.528 -7.68,2.304 -16.82,4.152 -16.82,16.215 0,10.07 7.29,15.753 17.29,15.753 10.6,0 16.29,-6.304 16.89,-17.211 l -6.91,-1.082" /><path
         id="path162"
         style="fill:#41434a;fill-opacity:1;fill-rule:nonzero;stroke:none"
         d="m 1082.1,506.176 c -0.39,6.304 -3.32,9.453 -8.3,9.453 -6.46,0 -9.68,-5.152 -9.68,-15.527 0,-9.598 2.61,-15.051 9.53,-15.051 5.21,0 7.52,2.84 8.3,8.91 l 5.99,-0.465 c -1.01,-10.523 -7.38,-13.828 -14.68,-13.828 -12.13,0 -16.29,8.832 -16.29,20.055 0,13.441 6.15,21.285 17.2,21.285 10.08,0 13.77,-6.61 14.07,-14.367 l -6.14,-0.465" /><path
         id="path164"
         style="fill:#41434a;fill-opacity:1;fill-rule:nonzero;stroke:none"
         d="m 1096.15,520.082 6.91,0 0,-39.492 -6.91,0 0,39.492 z m 0,16.906 6.91,0 0,-8.218 -6.91,0 0,8.218" /><path
         id="path166"
         style="fill:#41434a;fill-opacity:1;fill-rule:nonzero;stroke:none"
         d="m 1136.64,503.793 c 0.23,7.145 -1.92,12.066 -8.23,12.066 -6.6,0 -9.14,-5.765 -9.29,-12.066 l 17.52,0 z m 6.3,-10.527 c -1.15,-11.063 -8.45,-13.598 -14.53,-13.598 -12.44,0 -16.44,8.68 -16.44,20.289 0,12.824 5.84,21.051 17.15,21.051 9.37,0 14.14,-6.379 14.14,-17.524 0,-1.457 -0.08,-2.921 -0.24,-4.531 l -23.9,0 c 0,-7.84 2.07,-13.902 9.45,-13.902 4.84,0 7.83,2.527 8.61,8.758 l 5.76,-0.543" /><path
         id="path168"
         style="fill:#41434a;fill-opacity:1;fill-rule:nonzero;stroke:none"
         d="m 1182.96,480.59 -6.83,0 0,24.207 c 0,7.375 -2.23,10.598 -7.54,10.598 -7.6,0 -9.45,-6.223 -9.45,-12.29 l 0,-22.515 -6.84,0 0,39.492 6.31,0 0.29,-5.762 0.08,0 c 1.39,2.77 4.53,6.688 11.31,6.688 8.3,0 12.67,-4.918 12.67,-15.445 l 0,-24.973" /><path
         id="path170"
         style="fill:#41434a;fill-opacity:1;fill-rule:nonzero;stroke:none"
         d="m 1216.75,506.176 c -0.39,6.304 -3.3,9.453 -8.3,9.453 -6.44,0 -9.67,-5.152 -9.67,-15.527 0,-9.598 2.62,-15.051 9.52,-15.051 5.23,0 7.53,2.84 8.3,8.91 l 5.99,-0.465 c -0.99,-10.523 -7.36,-13.828 -14.67,-13.828 -12.14,0 -16.28,8.832 -16.28,20.055 0,13.441 6.15,21.285 17.2,21.285 10.06,0 13.75,-6.61 14.07,-14.367 l -6.16,-0.465" /><path
         id="path172"
         style="fill:#41434a;fill-opacity:1;fill-rule:nonzero;stroke:none"
         d="m 1253.78,503.793 c 0.24,7.145 -1.93,12.066 -8.22,12.066 -6.6,0 -9.14,-5.765 -9.31,-12.066 l 17.53,0 z m 6.29,-10.527 c -1.13,-11.063 -8.43,-13.598 -14.51,-13.598 -12.44,0 -16.44,8.68 -16.44,20.289 0,12.824 5.84,21.051 17.13,21.051 9.37,0 14.14,-6.379 14.14,-17.524 0,-1.457 -0.06,-2.921 -0.22,-4.531 l -23.92,0 c 0,-7.84 2.08,-13.902 9.47,-13.902 4.84,0 7.83,2.527 8.61,8.758 l 5.74,-0.543" /><path
         id="path174"
         style="fill:#41434a;fill-opacity:1;fill-rule:nonzero;stroke:none"
         d="m 1288.96,508.098 c -0.45,4.992 -2.38,7.683 -7.54,7.683 -4.45,0 -7.13,-1.769 -7.13,-5.531 0,-4.383 3.99,-5.453 8.52,-6.609 5.84,-1.457 12.6,-3.078 12.6,-11.914 0,-7.68 -6.37,-12.059 -14.89,-12.059 -8.77,0 -13.38,3.762 -14.24,12.289 l 6.23,0.93 c 0.63,-5.153 2.31,-8 8.23,-8 5.52,0 7.99,2.539 7.99,6.152 0,4.531 -3.85,5.766 -8.21,6.914 -5.94,1.539 -12.77,2.77 -12.77,11.449 0,7.688 6.07,11.606 13.83,11.606 8.45,0 12.75,-4.231 13.38,-11.988 l -6,-0.922" /></g></g></svg>